<svg id="Layer_1" data-name="Layer 1" xmlns="http://www.w3.org/2000/svg" viewBox="0 0 220.92 219.61"><defs><style>.cls-1{fill:#ffcb2f;}</style></defs><title>3</title><rect class="cls-1" x="46.9" y="53.23" width="126.56" height="113" rx="12.4" ry="12.4"/><path d="M110.14,72c13.39,0,20.7,7.78,20.7,17.65,0,7.88-4.94,14-12.15,15.66v.48c8,1.89,13.38,7.77,13.38,17.64,0,10.63-7.4,19-21.73,19-13,0-22.69-6.92-23.73-20.21H95c.86,7.31,6.17,12.91,15.28,12.91s13.57-5.41,13.57-12.44c0-9.67-6.74-13.37-19.07-13.37h-2.19v-7.22h2.28c11.48-.09,17.66-3.6,17.66-11.57,0-6.56-4.37-11.11-12.63-11.11C101.79,79.43,97,84,96.1,90.63H87.65C88.51,78.86,97.43,72,110.14,72Z"/></svg>