<svg id="Layer_1" data-name="Layer 1" xmlns="http://www.w3.org/2000/svg" viewBox="0 0 242.71 226.68"><defs><style>.cls-1{fill:#ffcb2f;}</style></defs><title>Artboard 3</title><rect class="cls-1" x="57.9" y="57.23" width="126.56" height="113" rx="12.4" ry="12.4"/><path d="M121.14,76c13.39,0,20.7,7.78,20.7,17.65,0,7.88-4.94,14-12.15,15.66v.48c8,1.89,13.38,7.77,13.38,17.64,0,10.63-7.4,19-21.73,19-13,0-22.69-6.92-23.73-20.21H106c.86,7.31,6.17,12.91,15.28,12.91s13.57-5.41,13.57-12.44c0-9.67-6.74-13.37-19.07-13.37h-2.19v-7.22h2.28c11.48-.09,17.66-3.6,17.66-11.57,0-6.56-4.37-11.11-12.63-11.11-8.07,0-12.91,4.55-13.76,11.2H98.65C99.51,82.86,108.43,76,121.14,76Z"/></svg>