<svg id="Layer_1" data-name="Layer 1" xmlns="http://www.w3.org/2000/svg" xmlns:xlink="http://www.w3.org/1999/xlink" viewBox="0 0 1337.98 396.93"><defs><style>.cls-1,.cls-11,.cls-2{fill:none;}.cls-1{clip-rule:evenodd;}.cls-3{fill:#474f5e;}.cls-4{fill:#59c3ed;}.cls-13,.cls-5{fill:#f09416;}.cls-6,.cls-8{fill:#96e1ed;}.cls-11,.cls-13,.cls-6,.cls-7{fill-rule:evenodd;}.cls-7{fill:#35a9c4;}.cls-9{clip-path:url(#clip-path);}.cls-10{clip-path:url(#clip-path-2);}.cls-11{stroke:#474f5e;stroke-miterlimit:10;stroke-width:4.79px;}.cls-12{clip-path:url(#clip-path-3);}</style><clipPath id="clip-path"><polygon class="cls-1" points="188.67 163.15 188.67 509.71 -157.89 509.71 188.67 163.15"/></clipPath><clipPath id="clip-path-2"><rect class="cls-2" x="-299.45" y="163.15" width="488.11" height="488.11"/></clipPath><clipPath id="clip-path-3"><rect class="cls-2" x="898.06" y="2.07" width="436.05" height="507.64"/></clipPath></defs><title>Artboard 8</title><rect class="cls-3" x="898.06" y="2.07" width="436.05" height="507.64"/><rect class="cls-4" x="-0.07" y="2.07" width="1334.18" height="507.64"/><rect class="cls-5" x="188.67" y="2.07" width="362.83" height="507.64"/><rect class="cls-3" x="898.06" y="2.07" width="436.05" height="507.64"/><polygon class="cls-6" points="-0.07 348.63 -0.07 2.07 346.49 2.07 -0.07 348.63"/><polygon class="cls-6" points="1334.11 163.15 1334.11 509.71 987.55 509.71 1334.11 163.15"/><polygon class="cls-7" points="188.67 163.15 188.67 509.71 -157.89 509.71 188.67 163.15"/><circle class="cls-8" cx="640.17" cy="85.05" r="19.52"/><circle class="cls-8" cx="717.46" cy="46" r="19.52"/><circle class="cls-8" cx="786.61" cy="65.53" r="19.52"/><rect class="cls-8" x="638.54" y="101.32" width="3.25" height="63.45"/><rect class="cls-8" x="784.98" y="80.17" width="3.25" height="84.61"/><rect class="cls-8" x="715.83" y="59.02" width="3.25" height="105.76"/><polygon class="cls-7" points="551.5 509.71 551.5 163.15 898.06 163.15 551.5 509.71"/><g class="cls-9"><g class="cls-10"><path class="cls-11" d="M200.45,156.38c-25,4.68-78-38.23-97.21-45.55S47.55,166.52,14,171.2s-67.09-25.74-97.51-35.1-91.64,38.76-133.78,45-69.15-60.2-91.93-60.2"/><path class="cls-11" d="M200.45,186.91c-25,4.68-78-38.23-97.21-45.55S47.55,197.05,14,201.73-53.08,176-83.5,166.63s-91.64,38.76-133.78,45-69.15-60.2-91.93-60.2"/><path class="cls-11" d="M200.45,217.44c-25,4.68-78-38.22-97.21-45.55S47.55,227.58,14,232.26s-67.09-25.74-97.51-35.1-91.64,38.76-133.78,45-69.15-60.2-91.93-60.2"/><path class="cls-11" d="M200.45,248c-25,4.68-78-38.22-97.21-45.55S47.55,258.11,14,262.79s-67.09-25.74-97.51-35.1-91.64,38.76-133.78,44.95-69.15-60.2-91.93-60.2"/><path class="cls-11" d="M200.45,278.5c-25,4.68-78-38.22-97.21-45.54S47.55,288.64,14,293.32s-67.09-25.74-97.51-35.1S-175.14,297-217.28,303.17-286.43,243-309.21,243"/><path class="cls-11" d="M200.45,309c-25,4.68-78-38.22-97.21-45.54S47.55,319.17,14,323.85s-67.09-25.74-97.51-35.1-91.64,38.76-133.78,44.95-69.15-60.2-91.93-60.2"/><path class="cls-11" d="M200.45,339.56c-25,4.68-78-38.22-97.21-45.54S47.55,349.7,14,354.39s-67.09-25.75-97.51-35.11-91.64,38.76-133.78,45S-286.43,304-309.21,304"/><path class="cls-11" d="M200.45,370.1c-25,4.68-78-38.23-97.21-45.55S47.55,380.24,14,384.92s-67.09-25.75-97.51-35.11-91.64,38.76-133.78,44.95-69.15-60.2-91.93-60.2"/><path class="cls-11" d="M200.45,400.63c-25,4.68-78-38.23-97.21-45.55S47.55,410.77,14,415.45s-67.09-25.74-97.51-35.11-91.64,38.76-133.78,45-69.15-60.2-91.93-60.2"/><path class="cls-11" d="M200.45,431.16c-25,4.68-78-38.23-97.21-45.55S47.55,441.3,14,446s-67.09-25.74-97.51-35.11-91.64,38.76-133.78,44.95-69.15-60.2-91.93-60.2"/></g></g><circle class="cls-3" cx="730.63" cy="368.41" r="3.09"/><polygon class="cls-6" points="1334.11 163.15 1334.11 509.71 987.55 509.71 1334.11 163.15"/><polygon class="cls-6" points="1334.11 163.15 1334.11 509.71 987.55 509.71 1334.11 163.15"/><g class="cls-12"><path class="cls-13" d="M1165,62.86s4.17,8.89.19,15.24-14.61,7.73-14.61,7.73-4.17-8.9-.18-15.24S1165,62.86,1165,62.86Z"/><path class="cls-13" d="M958.32,269.5s4.17,8.89.19,15.23-14.61,7.73-14.61,7.73-4.17-8.89-.19-15.23S958.32,269.5,958.32,269.5Z"/><path class="cls-13" d="M1191,233.7s4.17,8.89.18,15.24-14.61,7.73-14.61,7.73-4.16-8.9-.18-15.24S1191,233.7,1191,233.7Z"/><path class="cls-13" d="M1248.38,160.23s-9.45,4.59-16.86,1.64-10-12.32-10-12.32,9.45-4.59,16.85-1.64S1248.38,160.23,1248.38,160.23Z"/><path class="cls-13" d="M981.54,160.23s-9.45,4.59-16.85,1.64-10-12.32-10-12.32,9.45-4.59,16.86-1.64S981.54,160.23,981.54,160.23Z"/><path class="cls-13" d="M1347.63,238.33s-9.45,4.59-16.86,1.64-10-12.33-10-12.33,9.45-4.58,16.85-1.63S1347.63,238.33,1347.63,238.33Z"/><path class="cls-13" d="M1003.38,53.39s-10-3.49-12.32-10.47,4-14.82,4-14.82,10,3.49,12.31,10.48S1003.38,53.39,1003.38,53.39Z"/><path class="cls-13" d="M1089.61,362.53s-10-3.49-12.31-10.48,4-14.81,4-14.81,10,3.49,12.31,10.48S1089.61,362.53,1089.61,362.53Z"/><path class="cls-13" d="M1097.74,14.34s-10-3.49-12.31-10.47,4-14.82,4-14.82,10,3.5,12.31,10.48S1097.74,14.34,1097.74,14.34Z"/><path class="cls-13" d="M1076.71,204s-4.66,8.7-12.58,10.21-16.12-4.72-16.12-4.72,4.66-8.7,12.58-10.21S1076.71,204,1076.71,204Z"/><path class="cls-13" d="M1286.6,334.12s-4.66,8.7-12.58,10.22-16.12-4.73-16.12-4.73,4.66-8.69,12.58-10.21S1286.6,334.12,1286.6,334.12Z"/><path class="cls-13" d="M1013.57,393.44s-6.8,7.46-14.9,7.25-14.43-8-14.43-8,6.81-7.47,14.91-7.26S1013.57,393.44,1013.57,393.44Z"/><path class="cls-13" d="M1343.86,29s-6.8,7.46-14.9,7.26-14.43-8-14.43-8,6.81-7.46,14.91-7.26S1343.86,29,1343.86,29Z"/></g></svg>