<svg id="Layer_1" data-name="Layer 1" xmlns="http://www.w3.org/2000/svg" viewBox="0 0 78.54 78.54"><title>HOW</title><path d="M50,10.73A39.27,39.27,0,1,0,89.27,50,39.31,39.31,0,0,0,50,10.73M50,83A33,33,0,1,1,83,50,33,33,0,0,1,50,83m-.62-20.31A5.05,5.05,0,1,0,53,64.14a4.89,4.89,0,0,0-3.58-1.48m11.1-32.55a16.26,16.26,0,0,0-5-2.19,23.54,23.54,0,0,0-5.76-.7,15.91,15.91,0,0,0-5.42.92,16.08,16.08,0,0,0-4.59,2.49,12.62,12.62,0,0,0-3.2,3.63,8.52,8.52,0,0,0-1.21,4.34,3.35,3.35,0,0,0,1.21,2.81,4.32,4.32,0,0,0,2.8,1,3.82,3.82,0,0,0,2.31-.61A5.28,5.28,0,0,0,43,40.24a13.53,13.53,0,0,0,1-1.94,8,8,0,0,1,1.14-1.94,5.92,5.92,0,0,1,1.85-1.51,6.6,6.6,0,0,1,3.11-.62,6.29,6.29,0,0,1,4.34,1.39A4.93,4.93,0,0,1,56,39.53a4.7,4.7,0,0,1-.8,2.71,12.46,12.46,0,0,1-2,2.25,32.82,32.82,0,0,1-2.59,2.1A24.68,24.68,0,0,0,48,48.77a12.14,12.14,0,0,0-2,2.56,6.41,6.41,0,0,0-.8,3.24,4.62,4.62,0,0,0,1,2.8,3.46,3.46,0,0,0,3,1.32,4.36,4.36,0,0,0,2.31-.49,3.61,3.61,0,0,0,1.2-1.26,9.32,9.32,0,0,0,.71-1.7A5.85,5.85,0,0,1,55.71,52L58,50.41c.82-.6,1.68-1.26,2.56-2a17.42,17.42,0,0,0,2.41-2.37,11.73,11.73,0,0,0,1.75-2.89,9.3,9.3,0,0,0,.68-3.64,10.76,10.76,0,0,0-4.88-9.42" transform="translate(-10.73 -10.73)"/></svg>