<svg id="Layer_1" data-name="Layer 1" xmlns="http://www.w3.org/2000/svg" viewBox="0 0 683.04 720.5"><defs><style>.cls-1{fill:#ffde5b;}.cls-2,.cls-4{fill:none;stroke-miterlimit:10;}.cls-2{stroke:#ffde5b;}.cls-3{fill:#ffcb2f;}.cls-4{stroke:#000;stroke-width:0.75px;}.cls-5{font-size:19.96px;letter-spacing:0.03em;}.cls-5,.cls-6,.cls-7{font-family:OpenSans-Light, Open Sans;}.cls-6{font-size:20.45px;letter-spacing:0.02em;}.cls-7{font-size:19.66px;letter-spacing:0.02em;}.cls-8{font-size:15.48px;font-family:Poppins-SemiBold, Poppins;font-weight:700;}.cls-9{fill:#fff;}.cls-10{font-size:41.28px;font-family:Poppins-Regular, Poppins;letter-spacing:0.02em;}</style></defs><title>HOWITWORKS</title><rect class="cls-1" y="5.04" width="96.31" height="711"/><rect class="cls-2" x="146.93" y="0.5" width="535.62" height="719.5"/><rect class="cls-3" x="183.53" y="64.72" width="47.73" height="47.73" rx="11.96" ry="11.96"/><circle class="cls-4" cx="142.74" cy="70.57" r="4.6"/><circle class="cls-4" cx="156.32" cy="70.57" r="4.6"/><circle class="cls-4" cx="170.22" cy="70.57" r="4.6"/><path class="cls-4" d="M187.32,88.25l-5.48-6.2a6,6,0,0,0-4.75-2.61H149.4a6,6,0,0,0-5,2.62L139,88.25a2.47,2.47,0,1,0,3.69,3.27l.75-.85V109a2.47,2.47,0,1,0,4.93,0V99.2h2.14V109a2.47,2.47,0,0,0,4.93,0s0-23.92,0-24.11H157c0,.19,0,24.11,0,24.11a2.47,2.47,0,1,0,4.93,0V99.2h2.14V109a2.47,2.47,0,0,0,4.93,0s0-23.92,0-24.11h2c0,.19,0,24.11,0,24.11a2.47,2.47,0,0,0,4.93,0V99.2H178V109a2.47,2.47,0,1,0,4.93,0V90.67l.75.85a2.47,2.47,0,1,0,3.69-3.27Z" transform="translate(-6.67 -3.28)"/><path d="M210.22,114.69a1.24,1.24,0,1,0,0-2.47H191.34a.67.67,0,0,1-.67-.67h0V87.08h38v6.71a1.24,1.24,0,0,0,2.47,0V78.41A3.13,3.13,0,0,0,228,75.28H191.34a3.14,3.14,0,0,0-3.14,3.13v33.14a3.13,3.13,0,0,0,3.14,3.14h18.88ZM191.34,77.75H228a.67.67,0,0,1,.67.67h0v6.2h-38V78.41A.66.66,0,0,1,191.34,77.75Z" transform="translate(-6.67 -3.28)"/><path d="M235.29,110.21,224,106.08a1.22,1.22,0,0,0-1.58.73,1.24,1.24,0,0,0,0,.85l4.13,11.25a1.25,1.25,0,0,0,1.07.81h.09a1.24,1.24,0,0,0,1.09-.65l1.7-3.17,3.05,3a1.23,1.23,0,0,0,1.75-1.74l-3.05-3,3.17-1.7a1.24,1.24,0,0,0-.16-2.25ZM228,115.48l-2.27-6.17,6.17,2.27-2.21,1.19a1.16,1.16,0,0,0-.49.49Z" transform="translate(-6.67 -3.28)"/><path d="M232.63,100.08l-2.06,2.06a1.24,1.24,0,0,0,1.75,1.75l2.05-2.07a1.23,1.23,0,1,0-1.75-1.74h0Z" transform="translate(-6.67 -3.28)"/><path d="M217.33,118.36a1.24,1.24,0,0,0,.87-.36l2.06-2.06a1.24,1.24,0,0,0-1.75-1.75l-2,2.07a1.24,1.24,0,0,0,.87,2.11Z" transform="translate(-6.67 -3.28)"/><path d="M220.26,102.14l-2.06-2.06a1.24,1.24,0,0,0-1.75,1.75l2.06,2.06a1.24,1.24,0,0,0,1.75-1.75Z" transform="translate(-6.67 -3.28)"/><path d="M224.18,97.6v2.91a1.24,1.24,0,0,0,2.47,0V97.6a1.24,1.24,0,0,0-2.47,0Z" transform="translate(-6.67 -3.28)"/><path d="M218.12,109a1.24,1.24,0,0,0-1.23-1.24H214a1.24,1.24,0,1,0,0,2.47h2.91A1.23,1.23,0,0,0,218.12,109Z" transform="translate(-6.67 -3.28)"/><path d="M224.17,92.12a1.24,1.24,0,0,0-1.24-1.23H195.88a1.23,1.23,0,0,0-1.23,1.23v15.11a1.24,1.24,0,0,0,1.23,1.24h12.75a1.24,1.24,0,0,0,0-2.47H197.12V93.36h25.81A1.25,1.25,0,0,0,224.17,92.12Z" transform="translate(-6.67 -3.28)"/><circle cx="187.72" cy="78.08" r="1.38"/><circle cx="192.43" cy="78.08" r="1.38"/><circle cx="197.13" cy="78.08" r="1.38"/><text class="cls-5" transform="translate(301.04 80.72)">Create a Giving Group with your <tspan x="0" y="27.94">friends, family, and colleagues.</tspan></text><text class="cls-6" transform="translate(301.32 253.13)">Decide what you will give up <tspan x="0" y="28.64">for the month of October</tspan></text><text class="cls-7" transform="translate(300.59 421.43)">Set a fundraising goal for your<tspan x="0" y="27.52">team and encourage your friends &amp; </tspan><tspan x="0" y="55.04">family for your support!</tspan></text><path d="M150.76,241.67a1,1,0,0,0-1,1V249a4.12,4.12,0,1,0,2.06,0V242.7A1,1,0,0,0,150.76,241.67Zm22.7,0a1,1,0,0,0-1,1V249a4.13,4.13,0,1,0,2.07,0V242.7A1,1,0,0,0,173.46,241.67Zm-29.92,3.1a5.19,5.19,0,0,0-5.18,5.17v31.95a5.19,5.19,0,0,0,5.18,5.18h37.11a5.19,5.19,0,0,0,5.17-5.18V249.94a5.18,5.18,0,0,0-5.17-5.17h-3.08a1,1,0,1,0,0,2.06h3.08a3.09,3.09,0,0,1,3.11,3.11v9.27H140.42v-9.27a3.09,3.09,0,0,1,3.12-3.11h3.07a1,1,0,1,0,0-2.06Zm11.33,0a1,1,0,0,0,0,2.06h14.44a1,1,0,0,0,0-2.06ZM150.76,251a2.06,2.06,0,1,1-2.07,2.06A2,2,0,0,1,150.76,251Zm22.7,0a2.06,2.06,0,1,1-2.07,2.06A2,2,0,0,1,173.46,251Zm-33,10.31h43.34v20.62a3.09,3.09,0,0,1-3.11,3.11H143.54a3.09,3.09,0,0,1-3.12-3.11Z" transform="translate(-6.67 -3.28)"/><text class="cls-8" transform="translate(138.81 274.73)">OCT</text><rect class="cls-3" x="178.58" y="240.61" width="48.92" height="48.92" rx="11.46" ry="11.46"/><path d="M200.65,272.54V271a1.47,1.47,0,0,1,1.47-1.48H211a1.51,1.51,0,0,1,1.42,1.48v1.53a2.39,2.39,0,0,1-2.06,2.37l-.37,1.37a1.74,1.74,0,0,1-1.63,1.26H204.7a1.65,1.65,0,0,1-1.63-1.26l-.37-1.37A2.39,2.39,0,0,1,200.65,272.54Zm5.95-39.25a1.42,1.42,0,0,0,1.42-1.43v-5.05a1.42,1.42,0,1,0-2.84,0v5.05A1.42,1.42,0,0,0,206.6,233.29Zm-23.44,18.38h5.05a1.45,1.45,0,0,0,1.43-1.42,1.42,1.42,0,0,0-1.43-1.42h-5.05a1.42,1.42,0,1,0,0,2.84Zm40.35-1.47a1.41,1.41,0,0,0,1.42,1.42H230a1.41,1.41,0,0,0,1.42-1.42,1.36,1.36,0,0,0-1.42-1.43h-5.06A1.42,1.42,0,0,0,223.51,250.2Zm-28.92,12a1.46,1.46,0,0,0-2,0L189,265.79a1.44,1.44,0,0,0,0,2.06,1.41,1.41,0,0,0,2,0l3.58-3.59A1.43,1.43,0,0,0,194.59,262.21Zm25-23.55a1.44,1.44,0,0,0,1-.42l3.59-3.58a1.46,1.46,0,0,0-2.06-2.06l-3.58,3.58a1.44,1.44,0,0,0,0,2.06A1.69,1.69,0,0,0,219.61,238.66Zm-27-.42a1.44,1.44,0,0,0,1,.42,1.46,1.46,0,0,0,1-.42,1.44,1.44,0,0,0,0-2.06L191,232.6a1.46,1.46,0,0,0-2.06,2.06Zm29.55,29.61a1.46,1.46,0,0,0,1,.42,1.45,1.45,0,0,0,1-2.48l-3.53-3.58a1.45,1.45,0,0,0-2.05,2.05Zm-29-17.28a13.34,13.34,0,0,1,13.22-13.49h.1a13.4,13.4,0,0,1,13.44,13.33,13.54,13.54,0,0,1-3.74,9.27,9,9,0,0,0-2.53,5.11,3.45,3.45,0,0,1-3.43,2.9h-7.37a3.42,3.42,0,0,1-3.43-2.9,9.78,9.78,0,0,0-2.52-5.11A13.82,13.82,0,0,1,193.17,250.57Zm3-.06a10.15,10.15,0,0,0,2.95,7.06,12.51,12.51,0,0,1,3.32,6.69.47.47,0,0,0,.52.43h2.27v-8.54l-3.06-3.06a1.38,1.38,0,0,1,0-1.94h0a1.39,1.39,0,0,1,1.95,0l2.48,2.47,2.47-2.47a1.39,1.39,0,0,1,1.95,0h0a1.38,1.38,0,0,1,0,1.94l-3.05,3.06v8.59h2.26a.56.56,0,0,0,.53-.42,12.07,12.07,0,0,1,3.32-6.69,10.4,10.4,0,0,0-7.59-17.6h-.1A10.35,10.35,0,0,0,196.12,250.51Z" transform="translate(-6.67 -3.28)"/><text class="cls-7" transform="translate(301.34 595.61)">Challenge your friends to join <tspan x="0" y="27.52">and engage your community to </tspan><tspan x="0" y="55.04">reach your goal</tspan></text><rect class="cls-9" x="19.66" y="67.93" width="55.04" height="49.14" rx="11.55" ry="11.55"/><path d="M53,83.39H49V80h7.75V109.8H53Z" transform="translate(-6.67 -3.28)"/><rect class="cls-9" x="19.66" y="237.9" width="55.04" height="49.14" rx="12.4" ry="12.4"/><text class="cls-10" transform="translate(34.9 276.5)">2</text><rect class="cls-9" x="17.69" y="409.94" width="55.04" height="49.14" rx="12.4" ry="12.4"/><path d="M51.86,421.4c5.82,0,9,3.38,9,7.67a6.74,6.74,0,0,1-5.28,6.81v.21c3.46.82,5.82,3.38,5.82,7.67,0,4.62-3.22,8.26-9.45,8.26-5.66,0-9.87-3-10.32-8.79h3.63c.37,3.17,2.68,5.61,6.64,5.61s5.9-2.35,5.9-5.41c0-4.21-2.93-5.82-8.29-5.82h-.95v-3.13h1c5,0,7.68-1.57,7.68-5,0-2.85-1.9-4.83-5.49-4.83s-5.61,2-6,4.87H42.08C42.45,424.37,46.33,421.4,51.86,421.4Z" transform="translate(-6.67 -3.28)"/><rect class="cls-3" x="174.65" y="412.82" width="48.92" height="48.92" rx="11.46" ry="11.46"/><rect class="cls-3" x="168.68" y="583.82" width="48.92" height="48.92" rx="11.46" ry="11.46"/><rect class="cls-9" x="19.66" y="573.08" width="55.04" height="49.14" rx="12.4" ry="12.4"/><path d="M55,608.12H39.75v-2.85l14.49-20h4.49v19.64h4.13v3.26H58.73v6.64H55Zm.17-3.26V589.14L44.08,604.86Z" transform="translate(-6.67 -3.28)"/><path d="M207.06,400.18a1.78,1.78,0,0,0-1.69,1.75v2.93A21.17,21.17,0,0,0,186,424.2h-3.11a1.72,1.72,0,0,0,.18,3.43H186A21.17,21.17,0,0,0,205.37,447v2.93a1.71,1.71,0,1,0,3.42,0V447a21.17,21.17,0,0,0,19.35-19.35h2.93a1.72,1.72,0,1,0,0-3.43h-2.93a21.17,21.17,0,0,0-19.35-19.34v-2.93A1.77,1.77,0,0,0,207.06,400.18Zm-1.8,8.12h.11v2.77a1.71,1.71,0,1,0,3.42,0V408.3a17.7,17.7,0,0,1,15.91,15.9h-2.95a1.72,1.72,0,0,0,.18,3.43h2.77a17.66,17.66,0,0,1-15.91,15.9v-2.76a1.71,1.71,0,1,0-3.42,0v2.76a17.66,17.66,0,0,1-15.91-15.9h2.77a1.72,1.72,0,1,0,0-3.43h-2.77A17.69,17.69,0,0,1,205.26,408.3Zm1.82,7.34a1.7,1.7,0,0,0-1.71,1.71v.32a5.15,5.15,0,0,0-3.43,4.82,4.58,4.58,0,0,0,1.79,3.64,13.35,13.35,0,0,0,2.62,1.32c1.15.51,2.44,1,2.44,1.89,0,1.26-.58,1.72-1.71,1.72a2.31,2.31,0,0,1-1.89-1.34,1.72,1.72,0,0,0-3.07,1.53,5.93,5.93,0,0,0,3.25,2.95v.29a1.71,1.71,0,1,0,3.42,0v-.31a5.16,5.16,0,0,0,3.43-4.84,4.63,4.63,0,0,0-1.78-3.65,13.12,13.12,0,0,0-2.63-1.32c-1.15-.51-2.44-1-2.44-1.88,0-1.25.58-1.71,1.71-1.71a2.31,2.31,0,0,1,1.89,1.34,1.72,1.72,0,0,0,3.07-1.54,5.93,5.93,0,0,0-3.25-2.93v-.3A1.7,1.7,0,0,0,207.08,415.64Z" transform="translate(-6.67 -3.28)"/><circle cx="144.97" cy="425.13" r="3.39"/><path d="M181,450h-3.52V428.31a.79.79,0,1,0-1.58,0v1.32l-8.72,4.23a.78.78,0,0,0,0,1.41l8.67,4.18V450h-11a.93.93,0,0,0-.93.92v3.26h-4.36a1.61,1.61,0,0,0,.22-.66c.75-6.91,0-7.79-.39-8.23s-1.37-1.19-4.5-2.25l.14-7.57a10.8,10.8,0,0,0,3.87-1.41c1.54-1,3.7-4.05,4.14-4.67a1.43,1.43,0,1,0-2.38-1.58,18.79,18.79,0,0,1-3.26,3.83,8,8,0,0,1-3.74,1.1H149.7a7.36,7.36,0,0,1-3.74-1.1,18.79,18.79,0,0,1-3.26-3.83,1.42,1.42,0,1,0-2.37,1.58c.39.62,2.55,3.7,4.13,4.67a10.87,10.87,0,0,0,3.88,1.41c0,1.59.18,6.91.22,7.66s.13,2.25.18,2.77c.13,1.5.26,3.22.26,3.88a67.7,67.7,0,0,1-1.72,7.22,1.74,1.74,0,0,0,.13,1.23h-2.95a.93.93,0,0,0-.92.93v6.38a.93.93,0,0,0,.92.93h36.59a.93.93,0,0,0,.93-.93V450.94A1.05,1.05,0,0,0,181,450Zm-27.25,5.06v3.26h-3.35c0-.09.09-.22.14-.31.57-2,1.85-6.82,1.85-8.14,0-.8-.14-2.51-.27-4.14v-.09c.22.09.4.18.62.26a23.93,23.93,0,0,1,4,1.5,35.68,35.68,0,0,1-.22,5.77,1.64,1.64,0,0,0,.22,1h-2A.87.87,0,0,0,153.71,455.08Z" transform="translate(-6.67 -3.28)"/><circle cx="191.02" cy="572" r="3.23"/><path d="M194.2,583.49l-.56,8.09h1.05v.1l-1.07,11.51a1.47,1.47,0,0,0,1.33,1.6h.14a1.47,1.47,0,0,0,1.46-1.34l1-11.14h.19l1,11.14a1.49,1.49,0,0,0,1.47,1.34h.14a1.46,1.46,0,0,0,1.32-1.6l-1.07-11.51v-.11h1l-.56-8.17,5.27-6.1a1.48,1.48,0,0,0-.16-2.08,1.51,1.51,0,0,0-1-.35,1.47,1.47,0,0,0-1.12.52L200,579.94c0-1.57-.57-.46-2.26-.46h-.15c-1.69,0-2.25-1.11-2.25.46l-4.19-4.47a1.48,1.48,0,0,0-2.07-.16,1.47,1.47,0,0,0-.16,2.08Z" transform="translate(-6.67 -3.28)"/><path d="M178.94,598.61H180v.11l-1.08,11.5a1.49,1.49,0,0,0,1.33,1.61h.14a1.47,1.47,0,0,0,1.46-1.33l1-11.14h.2l1,11.14a1.47,1.47,0,0,0,1.46,1.33h.14a1.49,1.49,0,0,0,1.33-1.61L186,598.72v-.11H187l-.43-5.94,2.54,3a1.47,1.47,0,0,0,1.12.51,1.51,1.51,0,0,0,1-.35,1.48,1.48,0,0,0,.16-2.08l-5.15-6-.91-.73c0-1.58-.57-.46-2.25-.46h-.16c-1.68,0-2.25-1.12-2.25.46l-.92.74-5.06,6a1.47,1.47,0,0,0,.16,2.08,1.51,1.51,0,0,0,.95.35,1.47,1.47,0,0,0,1.12-.52l2.47-3Z" transform="translate(-6.67 -3.28)"/><circle cx="176.36" cy="579.03" r="3.23"/><path d="M220.49,593.73l-5.14-6-.92-.73c0-1.58-.56-.46-2.25-.46H212c-1.69,0-2.26-1.12-2.26.46l-.91.74-5.07,6a1.47,1.47,0,0,0,.16,2.08,1.51,1.51,0,0,0,1,.35,1.48,1.48,0,0,0,1.12-.52l2.46-3-.44,5.94h1.06v.1L208,610.22a1.49,1.49,0,0,0,1.33,1.61h.14A1.47,1.47,0,0,0,211,610.5l1-11.14h.2l1,11.14a1.47,1.47,0,0,0,1.46,1.33h.14a1.48,1.48,0,0,0,1.33-1.61l-1.07-11.51v-.1h1.05l-.44-5.94,2.55,3a1.43,1.43,0,0,0,1.11.52,1.51,1.51,0,0,0,1-.35A1.47,1.47,0,0,0,220.49,593.73Z" transform="translate(-6.67 -3.28)"/><circle cx="205.47" cy="579.03" r="3.23"/><path d="M216.54,612.56H203.33V607a1.46,1.46,0,0,0-1.45-1.46h-8.59a1.47,1.47,0,0,0-1.46,1.46v5.58h-13a1.46,1.46,0,0,0-1.46,1.46v6.3a1.46,1.46,0,0,0,1.46,1.46h37.7a1.45,1.45,0,0,0,1.45-1.46V614A1.45,1.45,0,0,0,216.54,612.56Z" transform="translate(-6.67 -3.28)"/><path d="M150.21,631.89h0a.47.47,0,0,0-.15-.43,14.4,14.4,0,0,1-3.68-5.16A.47.47,0,0,0,146,626h0a.47.47,0,0,0-.43.65,15.43,15.43,0,0,0,3.92,5.5A.47.47,0,0,0,150.21,631.89Z" transform="translate(-6.67 -3.28)"/><path d="M173.42,626h0a.47.47,0,0,0-.43.29,14.52,14.52,0,0,1-3.68,5.16.47.47,0,0,0-.15.43h0a.47.47,0,0,0,.78.26,15.34,15.34,0,0,0,3.93-5.5A.47.47,0,0,0,173.42,626Z" transform="translate(-6.67 -3.28)"/><path d="M151.82,608.32a.47.47,0,0,0,.5,0,14.38,14.38,0,0,1,14.73,0,.45.45,0,0,0,.5,0h0a.48.48,0,0,0,0-.8,15.34,15.34,0,0,0-15.7,0,.48.48,0,0,0,0,.8Z" transform="translate(-6.67 -3.28)"/><path d="M145.37,603.88h-.8a3.57,3.57,0,0,0-3.52,3.56V609a3.56,3.56,0,0,0,3.56,3.56h.76a3.56,3.56,0,0,0,3.56-3.56v-1.53a3.57,3.57,0,0,0-3.56-3.56ZM148,609a2.61,2.61,0,0,1-2.61,2.61h-.76A2.61,2.61,0,0,1,142,609v-1.53a2.61,2.61,0,0,1,2.61-2.61h.76a2.61,2.61,0,0,1,2.61,2.61Z" transform="translate(-6.67 -3.28)"/><path d="M151.18,621.3v-2.87a4.5,4.5,0,0,0-4.49-4.49h-3.4a4.57,4.57,0,0,0-3.57,1.78,4.47,4.47,0,0,0-.92,2.71v2.87h12.38Zm-11.43-2.87a3.55,3.55,0,0,1,3.54-3.54h3.4a3.55,3.55,0,0,1,3.54,3.54v1.92H139.75Z" transform="translate(-6.67 -3.28)"/><path d="M174.76,613.25a3.57,3.57,0,0,0,3.56-3.56v-1.53a3.56,3.56,0,0,0-3.56-3.56H174a4.23,4.23,0,0,0-.63,0,3.61,3.61,0,0,0-2.14,1.27,3.51,3.51,0,0,0-.79,2.24v1.53a3.56,3.56,0,0,0,3.56,3.56Zm-3.37-3.56v-1.53a2.62,2.62,0,0,1,2.61-2.62h.76a2.62,2.62,0,0,1,2.61,2.62v1.53a2.61,2.61,0,0,1-2.61,2.61H174A2.61,2.61,0,0,1,171.39,609.69Z" transform="translate(-6.67 -3.28)"/><path d="M176.08,614.66h-3.4a4.49,4.49,0,0,0-4.49,4.48V622h12.37v-2.87a4.47,4.47,0,0,0-1.59-3.42,4.32,4.32,0,0,0-.88-.58A4.51,4.51,0,0,0,176.08,614.66Zm3.54,4.48v1.92H169.14v-1.92a3.54,3.54,0,0,1,3.54-3.53h3.4A3.54,3.54,0,0,1,179.62,619.14Z" transform="translate(-6.67 -3.28)"/><path d="M160.06,631.75a3.56,3.56,0,0,0,3.56-3.56v-1.53a3.56,3.56,0,0,0-3.56-3.56h-.75a3.57,3.57,0,0,0-3.57,3.56v1.53a3.56,3.56,0,0,0,3.57,3.56Zm-3.37-3.56v-1.53a2.61,2.61,0,0,1,2.62-2.61h.75a2.61,2.61,0,0,1,2.61,2.61v1.53a2.62,2.62,0,0,1-2.61,2.62h-.75A2.62,2.62,0,0,1,156.69,628.19Z" transform="translate(-6.67 -3.28)"/><path d="M153.5,637.65v2.87h12.37v-2.87a4.5,4.5,0,0,0-4.49-4.49H158A4.49,4.49,0,0,0,153.5,637.65Zm4.48-3.54h3.4a3.55,3.55,0,0,1,3.54,3.54v1.92H154.45v-1.92A3.54,3.54,0,0,1,158,634.11Z" transform="translate(-6.67 -3.28)"/></svg>