<svg id="Layer_1" data-name="Layer 1" xmlns="http://www.w3.org/2000/svg" viewBox="0 0 242.71 226.68"><defs><style>.cls-1{fill:#ffcb2f;}</style></defs><title>icon3</title><rect class="cls-1" x="112.14" y="90.42" width="52.85" height="52.85" rx="11.46" ry="11.46"/><path d="M137.8,73.23A1.92,1.92,0,0,0,136,75.12v3.16a22.88,22.88,0,0,0-20.91,20.91h-3.35a1.85,1.85,0,1,0,.19,3.7h3.16A22.88,22.88,0,0,0,136,123.8V127a1.85,1.85,0,1,0,3.7,0V123.8a22.89,22.89,0,0,0,20.91-20.91h3.16a1.85,1.85,0,1,0,0-3.7h-3.16a22.88,22.88,0,0,0-20.91-20.91V75.12A1.92,1.92,0,0,0,137.8,73.23Zm-2,8.77a.48.48,0,0,0,.12,0v3a1.85,1.85,0,1,0,3.7,0V82a19.13,19.13,0,0,1,17.19,17.19h-3.19a1.85,1.85,0,0,0,.2,3.7h3a19.1,19.1,0,0,1-17.19,17.18v-3a1.85,1.85,0,1,0-3.7,0v3a19.07,19.07,0,0,1-17.19-17.18h3a1.85,1.85,0,1,0,0-3.7h-3A19.11,19.11,0,0,1,135.85,82Zm2,7.93A1.85,1.85,0,0,0,136,91.78v.35a5.53,5.53,0,0,0-3.7,5.2,5,5,0,0,0,1.92,3.94A14.47,14.47,0,0,0,137,102.7c1.25.54,2.64,1,2.64,2,0,1.35-.63,1.85-1.85,1.85a2.51,2.51,0,0,1-2-1.44,1.85,1.85,0,0,0-3.32,1.65A6.44,6.44,0,0,0,136,110v.31a1.85,1.85,0,0,0,3.7,0V110a5.57,5.57,0,0,0,3.7-5.23,5,5,0,0,0-1.92-3.95,14.47,14.47,0,0,0-2.84-1.43c-1.24-.54-2.64-1-2.64-2,0-1.35.63-1.85,1.85-1.85a2.52,2.52,0,0,1,2,1.45,1.86,1.86,0,0,0,3.32-1.66,6.39,6.39,0,0,0-3.51-3.16v-.33A1.85,1.85,0,0,0,137.82,89.93Z"/><circle cx="80.08" cy="103.72" r="3.66"/><path d="M111.76,127.08H108V103.63a.86.86,0,1,0-1.71,0v1.42l-9.42,4.57a.85.85,0,0,0-.47.76.84.84,0,0,0,.47.76l9.37,4.52v11.42H94.3a1,1,0,0,0-1,1v3.52H88.59a1.93,1.93,0,0,0,.24-.71c.81-7.47,0-8.42-.43-8.9s-1.47-1.28-4.85-2.43l.14-8.18a11.64,11.64,0,0,0,4.19-1.52c1.66-1,4-4.38,4.47-5a1.55,1.55,0,0,0-2.57-1.72,20.24,20.24,0,0,1-3.52,4.14,8.54,8.54,0,0,1-4,1.19H78a8,8,0,0,1-4-1.19,20.24,20.24,0,0,1-3.52-4.14,1.55,1.55,0,0,0-2.57,1.72c.43.66,2.76,4,4.47,5a11.8,11.8,0,0,0,4.19,1.52c0,1.71.19,7.47.24,8.28s.14,2.42.19,3c.14,1.61.28,3.47.28,4.18a72.91,72.91,0,0,1-1.85,7.8,1.83,1.83,0,0,0,.14,1.34H72.32a1,1,0,0,0-1,1v6.9a1,1,0,0,0,1,1h39.53a1,1,0,0,0,1-1V128.08A1.12,1.12,0,0,0,111.76,127.08Zm-29.45,5.47v3.52H78.7c0-.09.09-.24.14-.33.62-2.19,2-7.38,2-8.8,0-.86-.14-2.71-.29-4.47v-.1l.67.29a24.42,24.42,0,0,1,4.28,1.61,38.47,38.47,0,0,1-.24,6.24,1.74,1.74,0,0,0,.24,1.09H83.31A.94.94,0,0,0,82.31,132.55Z"/></svg>