<svg id="Layer_1" data-name="Layer 1" xmlns="http://www.w3.org/2000/svg" viewBox="0 0 242.71 226.68"><defs><style>.cls-1{fill:#ffcb2f;}.cls-2{fill:none;stroke:#000;stroke-miterlimit:10;stroke-width:0.75px;}</style></defs><title>Artboard 3</title><rect class="cls-1" x="123.73" y="93.15" width="63.21" height="63.21" rx="11.96" ry="11.96"/><circle class="cls-2" cx="69.72" cy="100.9" r="6.09"/><circle class="cls-2" cx="87.7" cy="100.9" r="6.09"/><circle class="cls-2" cx="106.11" cy="100.9" r="6.09"/><path class="cls-2" d="M119.93,120l-7.26-8.21a8,8,0,0,0-6.29-3.46H69.72a7.94,7.94,0,0,0-6.56,3.47L55.9,120a3.26,3.26,0,1,0,4.89,4.32l1-1.11V147.4a3.27,3.27,0,1,0,6.53,0V134.48h2.83V147.4a3.26,3.26,0,1,0,6.52,0s0-31.67,0-31.92H79.8c0,.25,0,31.92,0,31.92a3.27,3.27,0,1,0,6.53,0V134.48h2.83V147.4a3.27,3.27,0,0,0,6.53,0s0-31.67,0-31.92H98.2c0,.25,0,31.92,0,31.92a3.27,3.27,0,0,0,6.53,0V134.48h2.83V147.4a3.27,3.27,0,1,0,6.53,0V123.19l1,1.11a3.26,3.26,0,1,0,4.89-4.32Z"/><path d="M150.25,155a1.64,1.64,0,0,0,0-3.27h-25a.89.89,0,0,1-.89-.89h0v-32.4h50.3v8.88a1.64,1.64,0,1,0,3.27,0V107a4.17,4.17,0,0,0-4.16-4.15H125.25a4.15,4.15,0,0,0-4.16,4.15v43.88a4.16,4.16,0,0,0,4.16,4.16h25Zm-25-48.92h48.52a.89.89,0,0,1,.89.89h0v8.2h-50.3V107A.88.88,0,0,1,125.25,106.07Z"/><path d="M183.44,149.05l-14.9-5.47a1.63,1.63,0,0,0-2.1,1,1.57,1.57,0,0,0,0,1.13l5.47,14.9a1.65,1.65,0,0,0,1.42,1.07h.12a1.65,1.65,0,0,0,1.44-.87l2.25-4.19,4,4a1.63,1.63,0,0,0,2.31-2.31l-4-4,4.19-2.25a1.64,1.64,0,0,0,.67-2.22,1.66,1.66,0,0,0-.87-.76Zm-9.72,7-3-8.18,8.17,3L176,152.44a1.65,1.65,0,0,0-.66.65Z"/><path d="M179.92,135.64l-2.73,2.73a1.64,1.64,0,0,0,2.32,2.31l2.71-2.73a1.63,1.63,0,0,0-2.31-2.31h0Z"/><path d="M159.66,159.85a1.64,1.64,0,0,0,1.16-.48l2.72-2.73a1.63,1.63,0,0,0-2.31-2.31l-2.72,2.74a1.63,1.63,0,0,0,1.15,2.79Z"/><path d="M163.54,138.37l-2.72-2.73A1.64,1.64,0,0,0,158.5,138l2.73,2.72a1.63,1.63,0,0,0,2.31-2.31Z"/><path d="M168.73,132.36v3.85a1.64,1.64,0,1,0,3.27,0v-3.85a1.64,1.64,0,0,0-3.27,0Z"/><path d="M160.71,147.5a1.63,1.63,0,0,0-1.63-1.63h-3.85a1.64,1.64,0,1,0,0,3.27h3.85A1.63,1.63,0,0,0,160.71,147.5Z"/><path d="M168.71,125.1a1.63,1.63,0,0,0-1.63-1.63H131.26a1.63,1.63,0,0,0-1.63,1.63v20a1.64,1.64,0,0,0,1.63,1.64h16.88a1.64,1.64,0,0,0,0-3.27H132.9V126.74h34.18A1.63,1.63,0,0,0,168.71,125.1Z"/><circle cx="129.29" cy="110.85" r="1.82"/><circle cx="135.52" cy="110.85" r="1.82"/><circle cx="141.74" cy="110.85" r="1.82"/></svg>