<svg id="Layer_1" data-name="Layer 1" xmlns="http://www.w3.org/2000/svg" viewBox="0 0 242.71 226.68"><defs><style>.cls-1{font-size:16.26px;font-family:Poppins-SemiBold, Poppins;font-weight:700;}.cls-2{fill:#ffcb2f;}</style></defs><title>icon2</title><path d="M72.12,95.34A1.09,1.09,0,0,0,71,96.43v6.65a4.34,4.34,0,1,0,2.17,0V96.43A1.09,1.09,0,0,0,72.12,95.34Zm23.84,0a1.09,1.09,0,0,0-1.08,1.09v6.65a4.34,4.34,0,1,0,2.17,0V96.43A1.09,1.09,0,0,0,96,95.34ZM64.53,98.59A5.45,5.45,0,0,0,59.09,104V137.6A5.45,5.45,0,0,0,64.53,143h39A5.46,5.46,0,0,0,109,137.6V104a5.46,5.46,0,0,0-5.44-5.44h-3.24a1.09,1.09,0,1,0,0,2.17h3.24a3.24,3.24,0,0,1,3.27,3.27v9.74H61.26V104a3.24,3.24,0,0,1,3.27-3.27h3.23a1.09,1.09,0,1,0,0-2.17Zm11.9,0a1.09,1.09,0,0,0,0,2.17H91.61a1.09,1.09,0,1,0,0-2.17Zm-4.31,6.51A2.17,2.17,0,1,1,70,107.27,2.15,2.15,0,0,1,72.12,105.1Zm23.84,0a2.17,2.17,0,1,1-2.16,2.17A2.16,2.16,0,0,1,96,105.1Zm-34.7,10.84h45.53V137.6a3.24,3.24,0,0,1-3.27,3.27h-39a3.24,3.24,0,0,1-3.27-3.27Z"/><text class="cls-1" transform="translate(66.56 133.52)">OCT</text><rect class="cls-2" x="108.35" y="97.67" width="51.4" height="51.4" rx="11.46" ry="11.46"/><path d="M124.53,127.77v-1.6a1.55,1.55,0,0,1,1.55-1.55h9.36a1.57,1.57,0,0,1,1.49,1.55v1.6a2.51,2.51,0,0,1-2.15,2.49l-.39,1.44a1.82,1.82,0,0,1-1.72,1.33H128.8a1.73,1.73,0,0,1-1.72-1.33l-.39-1.44A2.51,2.51,0,0,1,124.53,127.77Zm6.26-41.24A1.48,1.48,0,0,0,132.28,85V79.72a1.5,1.5,0,0,0-3,0V85A1.49,1.49,0,0,0,130.79,86.53Zm-24.63,19.32h5.31a1.51,1.51,0,0,0,1.49-1.49,1.49,1.49,0,0,0-1.49-1.5h-5.31a1.5,1.5,0,1,0,0,3Zm42.4-1.55a1.48,1.48,0,0,0,1.49,1.49h5.32a1.48,1.48,0,0,0,1.49-1.49,1.42,1.42,0,0,0-1.49-1.49h-5.32A1.48,1.48,0,0,0,148.56,104.3Zm-30.39,12.62a1.56,1.56,0,0,0-2.11,0l-3.76,3.77a1.5,1.5,0,1,0,2.1,2.15l3.77-3.76A1.5,1.5,0,0,0,118.17,116.92Zm26.29-24.74a1.49,1.49,0,0,0,1-.45L149.28,88a1.53,1.53,0,0,0-2.16-2.16l-3.76,3.77a1.49,1.49,0,0,0,0,2.15A1.74,1.74,0,0,0,144.46,92.18Zm-28.4-.45a1.46,1.46,0,0,0,2.11,0,1.49,1.49,0,0,0,0-2.15l-3.77-3.77A1.52,1.52,0,0,0,112.25,88Zm31.06,31.11a1.5,1.5,0,0,0,1,.45,1.53,1.53,0,0,0,1.05-2.6l-3.71-3.77a1.52,1.52,0,0,0-2.15,2.16Zm-30.45-18.15a14,14,0,0,1,13.9-14.17h.11a14,14,0,0,1,10.18,23.74,9.58,9.58,0,0,0-2.65,5.37,3.63,3.63,0,0,1-3.6,3.05h-7.75a3.59,3.59,0,0,1-3.6-3.05,10.25,10.25,0,0,0-2.66-5.37A14.57,14.57,0,0,1,116.67,104.69Zm3.1-.06a10.75,10.75,0,0,0,3.1,7.42,13.06,13.06,0,0,1,3.49,7,.5.5,0,0,0,.55.44h2.38v-9l-3.21-3.22a1.47,1.47,0,0,1,0-2h0a1.46,1.46,0,0,1,2,0l2.6,2.6,2.61-2.6a1.45,1.45,0,0,1,2,0h0a1.45,1.45,0,0,1,0,2l-3.21,3.22v9h2.38a.6.6,0,0,0,.56-.44,12.61,12.61,0,0,1,3.48-7,10.92,10.92,0,0,0-8-18.49h-.11A10.88,10.88,0,0,0,119.77,104.63Z"/></svg>