<svg id="Layer_1" data-name="Layer 1" xmlns="http://www.w3.org/2000/svg" viewBox="0 0 242.71 226.68"><defs><style>.cls-1{fill:#ffcb2f;}</style></defs><title>icon4</title><rect class="cls-1" x="110.41" y="108.02" width="51.53" height="51.53" rx="11.46" ry="11.46"/><circle cx="133.94" cy="95.57" r="3.4"/><path d="M130.27,104.22l-.59,8.52h1.11v.11L129.65,125a1.56,1.56,0,0,0,1.4,1.69h.15a1.54,1.54,0,0,0,1.54-1.4l1.1-11.74h.2l1.1,11.74a1.54,1.54,0,0,0,1.54,1.4h.15a1.55,1.55,0,0,0,1.39-1.69l-1.13-12.12v-.11h1.11l-.59-8.62,5.55-6.42a1.55,1.55,0,0,0-.17-2.18,1.57,1.57,0,0,0-1-.38,1.55,1.55,0,0,0-1.18.55l-4.4,4.79c0-1.66-.6-.48-2.38-.48h-.16c-1.78,0-2.38-1.18-2.38.48l-4.4-4.7a1.55,1.55,0,0,0-2.36,2Z"/><path d="M114.19,120.15h1.11v.11l-1.13,12.12a1.56,1.56,0,0,0,1.4,1.69h.15a1.56,1.56,0,0,0,1.54-1.41l1.1-11.73h.2l1.1,11.73a1.55,1.55,0,0,0,1.54,1.41h.14a1.55,1.55,0,0,0,1.4-1.69l-1.13-12.12v-.11h1.11l-.46-6.26,2.68,3.14a1.58,1.58,0,0,0,1.18.54,1.53,1.53,0,0,0,1-.37,1.55,1.55,0,0,0,.18-2.19l-5.43-6.34-1-.77c0-1.66-.6-.49-2.37-.49h-.16c-1.78,0-2.38-1.17-2.38.49l-1,.77L109.7,115a1.55,1.55,0,0,0,.17,2.19,1.61,1.61,0,0,0,1,.37,1.55,1.55,0,0,0,1.18-.55l2.6-3.12Z"/><circle cx="118.5" cy="102.98" r="3.4"/><path d="M158,115l-5.42-6.34-1-.77c0-1.66-.6-.48-2.37-.48H149c-1.77,0-2.37-1.18-2.37.48l-1,.77L140.37,115a1.56,1.56,0,0,0,1.18,2.56,1.57,1.57,0,0,0,1.18-.55l2.59-3.12-.46,6.25H146v.11l-1.13,12.12a1.56,1.56,0,0,0,1.4,1.69h.14a1.56,1.56,0,0,0,1.55-1.41L149,120.93h.21l1.09,11.74a1.56,1.56,0,0,0,1.54,1.41H152a1.56,1.56,0,0,0,1.4-1.69l-1.13-12.12v-.11h1.11l-.46-6.26,2.68,3.14a1.56,1.56,0,0,0,1.18.54,1.53,1.53,0,0,0,1-.37A1.55,1.55,0,0,0,158,115Z"/><circle cx="149.17" cy="102.98" r="3.4"/><path d="M153.8,134.84H139.89V129a1.54,1.54,0,0,0-1.53-1.53h-9.05a1.53,1.53,0,0,0-1.53,1.53v5.88h-13.7a1.54,1.54,0,0,0-1.53,1.54V143a1.53,1.53,0,0,0,1.53,1.53H153.8a1.53,1.53,0,0,0,1.53-1.53v-6.64A1.54,1.54,0,0,0,153.8,134.84Z"/><path d="M79.72,155.2h0a.46.46,0,0,0-.15-.45,15.16,15.16,0,0,1-3.88-5.43.5.5,0,0,0-.45-.31h0a.5.5,0,0,0-.46.68,16.23,16.23,0,0,0,4.14,5.8A.49.49,0,0,0,79.72,155.2Z"/><path d="M104.17,149h0a.49.49,0,0,0-.45.31,15.16,15.16,0,0,1-3.88,5.43.46.46,0,0,0-.15.45h0a.49.49,0,0,0,.82.28,16.23,16.23,0,0,0,4.14-5.8A.5.5,0,0,0,104.17,149Z"/><path d="M81.41,130.37a.49.49,0,0,0,.53,0,15.12,15.12,0,0,1,15.51,0,.49.49,0,0,0,.53,0h0a.5.5,0,0,0,0-.84,16.18,16.18,0,0,0-16.53,0,.51.51,0,0,0,0,.85Z"/><path d="M74.62,125.7h-.84a3.76,3.76,0,0,0-3.71,3.75v1.61a3.75,3.75,0,0,0,3.75,3.75h.8a3.76,3.76,0,0,0,3.75-3.75v-1.61a3.64,3.64,0,0,0-.21-1.2A3.75,3.75,0,0,0,74.62,125.7Zm2.75,5.36a2.76,2.76,0,0,1-2.75,2.76h-.8a2.76,2.76,0,0,1-2.75-2.76v-1.61a2.75,2.75,0,0,1,2.75-2.75h.8a2.75,2.75,0,0,1,2.75,2.75Z"/><path d="M80.73,144.05v-3A4.73,4.73,0,0,0,76,136.3H72.43a4.69,4.69,0,0,0-2.38.65A4.74,4.74,0,0,0,67.7,141v3h13Zm-12-3a3.73,3.73,0,0,1,3.73-3.72H76A3.73,3.73,0,0,1,79.73,141v2h-11Z"/><path d="M105.57,135.57a3.75,3.75,0,0,0,3.75-3.75V130.2a3.76,3.76,0,0,0-3.75-3.75h-.8a3.89,3.89,0,0,0-2.91,1.4,3.75,3.75,0,0,0-.84,2.35v1.62a3.76,3.76,0,0,0,3.75,3.75ZM102,131.82V130.2a2.76,2.76,0,0,1,2.75-2.75h.8a2.75,2.75,0,0,1,2.75,2.75v1.62a2.75,2.75,0,0,1-2.75,2.75h-.8A2.75,2.75,0,0,1,102,131.82Z"/><path d="M107,137.05h-3.59a4.73,4.73,0,0,0-4.72,4.73v3h13v-3a4.74,4.74,0,0,0-4.72-4.73Zm3.72,4.73v2h-11v-2a3.73,3.73,0,0,1,3.72-3.73H107A3.73,3.73,0,0,1,110.69,141.78Z"/><path d="M90.09,155.06a3.75,3.75,0,0,0,3.75-3.75V149.7A3.75,3.75,0,0,0,90.09,146H89.3a3.75,3.75,0,0,0-3.75,3.75v1.61a3.75,3.75,0,0,0,3.75,3.75Zm-3.54-3.75V149.7a2.76,2.76,0,0,1,2.75-2.76h.79a2.77,2.77,0,0,1,2.76,2.76v1.61a2.76,2.76,0,0,1-2.76,2.75H89.3A2.75,2.75,0,0,1,86.55,151.31Z"/><path d="M83.18,161.27v3h13v-3a4.73,4.73,0,0,0-4.72-4.72H87.9A4.73,4.73,0,0,0,83.18,161.27Zm4.72-3.73h3.59a3.73,3.73,0,0,1,3.72,3.73v2h-11v-2A3.73,3.73,0,0,1,87.9,157.54Z"/></svg>