<svg id="Layer_1" data-name="Layer 1" xmlns="http://www.w3.org/2000/svg" xmlns:xlink="http://www.w3.org/1999/xlink" viewBox="0 0 3214.65 1512.78"><defs><style>.cls-1{fill:none;}.cls-2{clip-path:url(#clip-path);}.cls-3{clip-path:url(#clip-path-2);}.cls-4,.cls-7{fill:#f09416;}.cls-14,.cls-4{fill-rule:evenodd;}.cls-5{clip-path:url(#clip-path-3);}.cls-6{fill:#727f93;}.cls-14,.cls-8{fill:#96e1ed;}.cls-9{fill:#474f5e;}.cls-10{fill:#84c7ce;}.cls-11{fill:#d88016;}.cls-12{fill:#35a9c4;}.cls-13{fill:#319daf;}.cls-15{fill:#5d6877;}</style><clipPath id="clip-path"><rect class="cls-1" x="-460" y="1044.18" width="440" height="219"/></clipPath><clipPath id="clip-path-2"><rect class="cls-1" x="-183.31" y="1043.68" width="163.31" height="219.3"/></clipPath><clipPath id="clip-path-3"><rect class="cls-1" x="1908.47" y="196.29" width="1278.32" height="1065.56"/></clipPath></defs><title>Artboard 8</title><g class="cls-2"><g class="cls-3"><path class="cls-4" d="M-.53,1047.45s1.8,3.84.08,6.58-6.31,3.34-6.31,3.34-1.8-3.84-.08-6.58S-.53,1047.45-.53,1047.45Z"/><path class="cls-4" d="M9.31,1073.45s1.8,3.85.08,6.59-6.31,3.34-6.31,3.34-1.8-3.85-.08-6.59S9.31,1073.45,9.31,1073.45Z"/><path class="cls-4" d="M39,1145.74s-4.08,2-7.28.71-4.31-5.33-4.31-5.33,4.08-2,7.28-.7S39,1145.74,39,1145.74Z"/><path class="cls-4" d="M39,1257.5s-4.08,2-7.28.7-4.31-5.32-4.31-5.32,4.08-2,7.28-.71S39,1257.5,39,1257.5Z"/><path class="cls-4" d="M36.69,1101s-2.94,3.22-6.44,3.13-6.23-3.45-6.23-3.45,2.94-3.23,6.44-3.14S36.69,1101,36.69,1101Z"/><path class="cls-4" d="M37.39,1055.3s-2.94,3.23-6.44,3.14-6.23-3.46-6.23-3.46,2.94-3.23,6.44-3.14S37.39,1055.3,37.39,1055.3Z"/></g></g><g class="cls-5"><path class="cls-4" d="M1840.29,310.23s8.75,18.66.39,32S1810,358.44,1810,358.44s-8.75-18.67-.39-32S1840.29,310.23,1840.29,310.23Z"/><path class="cls-4" d="M2990.77,533.93s8.75,18.67.39,32-30.66,16.23-30.66,16.23-8.75-18.67-.39-32S2990.77,533.93,2990.77,533.93Z"/><path class="cls-4" d="M2656.54,214.6s8.75,18.67.39,32-30.67,16.23-30.67,16.23-8.75-18.67-.39-32S2656.54,214.6,2656.54,214.6Z"/><path class="cls-4" d="M2704.35,341s8.75,18.67.39,32-30.66,16.22-30.66,16.22-8.76-18.66-.4-32S2704.35,341,2704.35,341Z"/><path class="cls-4" d="M2489.5,459.4s8.75,18.67.39,32-30.67,16.23-30.67,16.23-8.75-18.67-.39-32S2489.5,459.4,2489.5,459.4Z"/><path class="cls-4" d="M2674.48,903.24s-19.83,9.63-35.38,3.44-20.94-25.86-20.94-25.86,19.83-9.63,35.38-3.44S2674.48,903.24,2674.48,903.24Z"/><path class="cls-4" d="M2154.86,483.53s-19.83,9.63-35.38,3.44-20.94-25.87-20.94-25.87,19.83-9.63,35.38-3.43S2154.86,483.53,2154.86,483.53Z"/><path class="cls-4" d="M2188.26,313s-19.83,9.63-35.38,3.44-20.94-25.87-20.94-25.87,19.83-9.63,35.38-3.43S2188.26,313,2188.26,313Z"/><path class="cls-4" d="M2483.29,347.26s-19.83,9.63-35.38,3.44S2427,324.84,2427,324.84s19.83-9.63,35.38-3.44S2483.29,347.26,2483.29,347.26Z"/><path class="cls-4" d="M2750.71,779.3s-19.82,9.63-35.37,3.43-20.94-25.86-20.94-25.86,19.83-9.63,35.38-3.44S2750.71,779.3,2750.71,779.3Z"/><path class="cls-4" d="M2739.27,656.8s-21-7.33-25.84-22,8.34-31.09,8.34-31.09,21,7.33,25.84,22S2739.27,656.8,2739.27,656.8Z"/><path class="cls-4" d="M1915,290.92s-21-7.33-25.84-22,8.34-31.1,8.34-31.1,21,7.33,25.85,22S1915,290.92,1915,290.92Z"/><path class="cls-4" d="M2289.68,490.15s-21-7.32-25.85-22,8.34-31.09,8.34-31.09,21,7.32,25.85,22S2289.68,490.15,2289.68,490.15Z"/><path class="cls-4" d="M3144,462.46s-21-7.33-25.85-22,8.34-31.09,8.34-31.09,21,7.33,25.85,22S3144,462.46,3144,462.46Z"/><path class="cls-4" d="M3003.4,362.32s-21-7.33-25.84-22,8.34-31.09,8.34-31.09,21,7.32,25.85,22S3003.4,362.32,3003.4,362.32Z"/><path class="cls-4" d="M2324.2,222s-21-7.33-25.84-22,8.34-31.1,8.34-31.1,21,7.33,25.85,22S2324.2,222,2324.2,222Z"/><path class="cls-4" d="M2027.32,346.84s-9.77,18.25-26.41,21.44-33.83-9.92-33.83-9.92,9.78-18.25,26.41-21.43S2027.32,346.84,2027.32,346.84Z"/><path class="cls-4" d="M3130.94,210.49s-9.78,18.25-26.41,21.43-33.84-9.91-33.84-9.91,9.78-18.25,26.41-21.43S3130.94,210.49,3130.94,210.49Z"/><path class="cls-4" d="M1856.56,193.15s-9.77,18.26-26.41,21.44-33.83-9.91-33.83-9.91,9.77-18.26,26.41-21.44S1856.56,193.15,1856.56,193.15Z"/><path class="cls-4" d="M2837.4,474.76s-14.29,15.66-31.29,15.23-30.28-16.8-30.28-16.8,14.29-15.67,31.29-15.24S2837.4,474.76,2837.4,474.76Z"/><path class="cls-4" d="M2840.82,252.77s-14.29,15.66-31.29,15.23-30.28-16.8-30.28-16.8,14.29-15.67,31.29-15.24S2840.82,252.77,2840.82,252.77Z"/></g><path class="cls-6" d="M2370.72,1045.35c-3.07-25.44,11.38-82.95-5.8-102.72-18.75-21.58-66.61-1-93.56-8.25-37.48-10.06-117.24-6.93-152.69,10.39l-.67.31c-1.51.76-3,1.54-4.49,2.37-.66.36-1.3.76-2,1.14-.83.48-1.65,1-2.47,1.47s-1.4.9-2.1,1.36-1.56,1-2.33,1.58-1.28.9-1.91,1.36c-.89.65-1.76,1.32-2.63,2-.5.4-1,.78-1.5,1.19q-2.05,1.66-4,3.45c-4.82,4.38-7.84,10.15-7.88,16.1-42.74,68.54-39.12,137.06-59.45,215.38-10.16,39.15-18.71,80.06-20.64,120.59-8.16,44.23-15.57,115.31,38.79,131.11,26.62,7.73,56.67,8.45,84.18,10.79,29.29,2.5,58.64,4,88,4.75,23.33.6,47.95,1,68.29-12.3,22.07-14.42,27.43-40.9,34.43-64.5C2352.54,1274.33,2384.55,1159.76,2370.72,1045.35Z"/><path class="cls-7" d="M2465,767.32c-6.7-23-14.38-45.58-24.7-67.23-7.22-15.16-31.67-14.64-36.76-.91-.42-.37-.82-.76-1.24-1.12-30.33-25.75-72.06-34-110.54-37.78-40.53-4-83.7-4.14-123.42,5.89a83.36,83.36,0,0,0-26.08,11.42c-4.94-13.13-27.48-18.47-36.52-2a503.38,503.38,0,0,0-35,79.5c-2.94,8.65-1.54,16.62,5.25,22.93,66.84,62.07,161.11,78.32,249.31,72.12,23.71-1.67,47.28-4.85,70.71-8.8,11.74-2,23.44-4.16,35.13-6.45,9.9-1.94,21.75-2.64,30.52-8C2483.55,813.51,2470.51,786.31,2465,767.32Zm-318.8,12.89c.27.32.53.65.81,1l-1.57-.82C2145.68,780.32,2145.92,780.25,2146.18,780.21Zm211-64.44a15.93,15.93,0,0,0-2.84,4.41,19.28,19.28,0,0,0-6.83,3.88,64.23,64.23,0,0,0-31.78-7.44,19.64,19.64,0,0,0-8.82-8.67c-11-5.67-23.55-4.76-35,.07a23.42,23.42,0,0,0-12.7,3.45c-2.17,1.28-4.31,2.64-6.41,4.1-10.94-10.35-27.89-14-44.66-12.28a41.9,41.9,0,0,0-4.33-3.14c-.57-.35-1.14-.65-1.71-1a367.84,367.84,0,0,1,78.34-1.29C2302,699.76,2332.32,704.58,2357.2,715.77Z"/><path class="cls-8" d="M2305.43,941.47a461.08,461.08,0,0,1,7.42-45.55l-55.18-7.66-43.79-9.91s-5.37,16.17-13.25,36.45c-9.63,24.8-9.6,23.75-9.6,23.75s7.65,24.3,45,30.38,60.32,1.88,60.32,1.88S2302.81,967.76,2305.43,941.47Z"/><path class="cls-8" d="M2415.29,824.93C2403.94,894.57,2322.6,926,2253,914.65s-136.8-67-125.45-136.62,24.11-145.44,167.6-122.06C2439.4,679.49,2426.64,755.28,2415.29,824.93Z"/><circle class="cls-9" cx="2206.28" cy="734.81" r="5.24"/><circle class="cls-9" cx="2347.7" cy="757.85" r="5.24"/><path class="cls-10" d="M2300.79,759c-.47-4.51-4.43-9.3-9.19-9.7L2267,747.24a11.36,11.36,0,0,0-5.41.84c-5.81-2.21-13.92-.06-15.95,7.82-4.38,17,9.52,35.26,27.12,35.21C2289.52,791.06,2302.51,775.37,2300.79,759Z"/><path class="cls-9" d="M2337.06,805.61c-8.75-4.26-17.64-1.42-26.35,1.15-10.79,3.18-21.45,5.74-32.68,6.78-25.61,2.39-51.59-2.35-73-17.1-8-5.5-17.22,2.42-16,9.5a14.21,14.21,0,0,0-1.75,3.61c-5,16,17.6,40.56,29.07,49.52,18,14.09,40.78,15.89,62.67,12.14,19.72-3.37,44.58-8.1,58.72-23.52C2348.26,836.3,2354.53,814.1,2337.06,805.61Z"/><path class="cls-8" d="M2639.56,618.89c9.88-11.51-2.43-29.22-16.56-21.46a57,57,0,0,0-6.72,4.44c4.17-9.41,8.49-18.76,12.84-28.1,7.31-15.72-14.26-29-23.6-13.79l-9.93,16.24,2.49-16.92c.79-4.21,1.46-8.49,1.86-12.93,1.36-15.16-24.59-18.9-26.84-3.63-.69,4.69-1.37,9.38-2.07,14.07a88.69,88.69,0,0,1-3.51,12.5l-1.38-18.53c-1.29-17.35-27-17.79-27.32,0q-.42,23.46-.85,46.93c-1.88-1.92-3.83-3.79-5.88-5.6-11.84-10.4-28.25,2.48-21.46,16.56l14.63,30.3c2.09,4.33,7.41,12,10.12,18.75a24.86,24.86,0,0,0,1.29,6.46c-8.44,10.9,4,29.41,17.18,20.44a23.73,23.73,0,0,0,9-10.76,30,30,0,0,0,4.33-3.35,12.68,12.68,0,0,0,1.71,10.4q-3.45,6.86-6.85,13.78c-7.72,15.72,15.84,29.59,23.59,13.79,7.68-15.64,15.41-31.33,24.07-46.44,1-1.52,1.94-3.07,2.78-4.67A268.13,268.13,0,0,1,2639.56,618.89Z"/><path class="cls-7" d="M2292.35,572.48a192.89,192.89,0,0,0-66.61,9.62c-60.69,8.81-117.35,48.65-123.45,112.57a19.88,19.88,0,0,0,10.19,19.47c3.15,13.74,24.87,12.28,25.4,11.51,87.56-9.7,186-7,270.71,17.24,1.69.49,38.12,10.51,40.1-7.06C2459,644.12,2379.39,575.44,2292.35,572.48Z"/><path class="cls-6" d="M2531,655.14c-5.48,46.66-15.28,92.06-36.38,135.71a35.42,35.42,0,0,1-4,6.36c-9.15,25.78-21.37,50.39-37.47,72.92-30.53,42.73-66.3,53.82-115.61,67.91,7.79,5.52,6.9,36.13,7,46a27.64,27.64,0,0,1-1.79,16.67,173.94,173.94,0,0,1-10.07,18.92c-2.26,4.17-4.59,8.3-7,12.37a259.55,259.55,0,0,0,27-6.52c-13.55,25-26.23,50.59-38.81,76-6.13,12.38-2.74,25,5.14,34.23q-37.36,65.44-80,127.84c-10.49,15.36-8.87,36.58,6.45,48.29,14.2,10.86,37.76,9,48.29-6.45a1993.57,1993.57,0,0,0,137.1-233.19c38.5-50.72,68.28-102.42,95.26-160.48,21.46-46.17,43.24-98.16,59.26-146.56,8.88-26.86,17.34-58.38,11.73-85.09C2576,668.86,2554,658.52,2531,655.14Z"/><circle class="cls-8" cx="1266.69" cy="828.11" r="40.98"/><circle class="cls-8" cx="1579.19" cy="691.5" r="20.49"/><circle class="cls-8" cx="1350.37" cy="558.3" r="20.49"/><circle class="cls-8" cx="1092.22" cy="322.65" r="20.49"/><circle class="cls-8" cx="1572.36" cy="394.37" r="20.49"/><circle class="cls-8" cx="1428.92" cy="746.14" r="71.72"/><circle class="cls-8" cx="1575.77" cy="869.09" r="40.98"/><rect class="cls-8" x="1263.28" y="862.26" width="6.83" height="433.74"/><rect class="cls-8" x="1570.65" y="893" width="6.83" height="478.14"/><rect class="cls-8" x="1425.5" y="773.46" width="6.83" height="522.53"/><path class="cls-7" d="M700.91,293c-6-11.78-13.46-22.81-22.91-32.15-13.73-13.56-41.13-32.61-60.16-18.39s-11,40.87,1.23,56.41c7.6,9.69,17,17.59,25.24,26.74,10.13,11.34,17.81,24.31,24,38.15,4.24,9.45,16.51,6.55,21.42,0a19,19,0,0,0,2.91-5.77,10.55,10.55,0,0,0,4.58-1.53c3.39,11.13,23.21,9.58,24.3-4.55a187.47,187.47,0,0,1,8.9-44.72c3.14-9.43,8.24-20.26-.72-28.29C717.48,268,707.87,279,700.91,293Z"/><path class="cls-7" d="M1412.06,242.49c-21.3-13.45-53.22,7.73-69.28,21.3a120.59,120.59,0,0,0-18.49,19.64c-3.12-8.55-8.75-15.78-17.19-19.9-10.21-5-20,3.18-18.21,14a299,299,0,0,1,3.5,66.15,12.17,12.17,0,0,0,.77,5.17l-.38.51c-8.44,11.43,7.3,22.13,17.66,15.9-1.48,12.27,14.22,20.33,22.53,8.28q14.91-21.63,28.54-44.05a320.68,320.68,0,0,1,27.31-27.38C1403.58,288.81,1443.19,262.14,1412.06,242.49Z"/><path class="cls-8" d="M1218.79,1300.79c-9.51-28.25-109.21-500.67-109.21-500.67,8.16-25.19-5.22-33.74,2.46-59.08,8.16-27-12.4-38.85-35.35-45.87-23.1-7.08-48.09-8.44-72-10.45s-48.09-3.38-72.19-3.48C877.33,681,821.64,687.62,770,707.58c-10.78,4.16-14.28,14.63-12.55,23.61-11.73,17.69-8.64,40.84-5.78,61.1,4.94,35,14.62,69.28,25.31,103.11a428.16,428.16,0,0,0,12.61,51.92,11,11,0,0,1,3.35,6.06c1.71,7.74,3,15.53,4.21,23.35,1.36,7,2.67,14.06,3.74,21.13,10.6,29.06,21.21,179.36,31.82,208.41a302.51,302.51,0,0,0,13.85,43.38,22.61,22.61,0,0,0,4.65,7.28q4.38,12,8.75,24a20.55,20.55,0,0,0,7.49,9.74c6.74,14.08,27.53,16.51,41.43,19.57a306.41,306.41,0,0,0,94.34,5.91c63.9-6.06,161.35,44.54,210.66,3.42C1218.77,1315.44,1220.8,1306.77,1218.79,1300.79Z"/><path class="cls-8" d="M1301,330.13c-14.35,1.53-22.45,8.25-27.9,21.24-58.42,139.29-152.51,262.39-269.28,357.82-12.1,9.89-10.27,30.65,0,40.92,12,12,28.78,9.92,40.92,0q10.44-8.54,20.6-17.36-12.49,30.86-25,61.72c-10.69,26.39,30.62,50.07,48.36,28.15,61.61-76.13,117.07-157,164.78-242.57q35.14-63,64.72-129c10.26-22.88,21.77-46.16,29.63-70C1357.18,352.67,1329.26,327.11,1301,330.13Z"/><path class="cls-8" d="M876.21,726.71c-15.37-52.65-57.91-90.22-79.49-139.84C772.14,530.35,757,468,745.51,407.61q-4.14-21.76-7.37-43.7C735.82,348.17,730.5,335,712,335.22c-13.55.17-21.91,6.42-26.73,15.35-8.87.88-16.7,7-16,18.35A1465.55,1465.55,0,0,0,773.56,834.65c3.94,9.73,12.81,16.35,23.73,13.47,9.18-2.42,17.38-14.08,13.47-23.72-4.24-10.45-8.31-21-12.3-31.5,9.67-1.55,18.23-10.36,16.1-23.59-1.26-7.82-2.63-15.61-4-23.4,11,0,21.28-10.2,19.28-24.18-.59-4.06-1.33-8.05-2.14-12A142.57,142.57,0,0,1,839,737C846,760.74,883.19,750.63,876.21,726.71Z"/><path class="cls-9" d="M1093.33,529.63c-20.28-10.18-42.69-14.1-65-17a559,559,0,0,0-76.28-4.67c-50.47.28-102.58,5.19-152,15.94-11.39,2.48-22.45,6.31-32.05,12.31a10.79,10.79,0,0,0-3.2-8c-4-4-12.38-4.84-16.22,0-15.32,19.29-27.08,40.91-29.88,65.71-2.54,22.55,3.86,46.29,19.08,63.36C754.67,676.08,781.08,684,805.2,688c26.78,4.39,54.92,7.65,81.77,2.15,20.11-4.12,39.37-14.6,52.07-30.75a210.29,210.29,0,0,0,114,36.41c21,.42,46.22-.68,63.75-13.56,16.38-12,23.39-33.54,25.93-52.94C1147.94,589,1130.42,548.24,1093.33,529.63Z"/><path class="cls-7" d="M1077.05,540.85c0,70.57-75.22,114.67-145.78,114.67s-145.79-44.1-145.79-114.67.41-147.42,145.79-147.42C1077.46,393.43,1077.05,470.29,1077.05,540.85Z"/><path class="cls-7" d="M987.37,676.81c-1.35-27,0-57.33,0-57.33l-55.69,1.63L876,619.48s1.35,30.35,0,57.33c-1.64,32.76-3.45,37-3.45,37s18.05,24.8,55.87,24.8S991,711.05,991,711.05,989,709.57,987.37,676.81Z"/><path id="Hair-top" class="cls-9" d="M1106.54,443c-15.51-45.43-50.07-85.06-90.14-110.9-23.85-15.37-50.28-19.49-77.85-21.24a9.21,9.21,0,0,0-5.81-1.71c-94.15,1.9-167.82,76.66-187.17,165.68-5.72,26.33-8.82,55.17-1.56,81.46,1.74,6.31,8.87,8.83,14.43,5.88a32.76,32.76,0,0,0,14.75-15.6C778.9,548,785.55,545,785,537.47a43.36,43.36,0,0,1,1.12-14.27,10.48,10.48,0,0,0,.29-3.42,129.94,129.94,0,0,1,25-38.95C827.77,463.52,848.58,453,871,445.57c35.56-11.74,74.27-18.12,105.73-38.52,14.05,20.56,40.17,33.81,59.25,48.26,18.29,13.86,38.8,34.42,39.85,58.76a24.65,24.65,0,0,1,1,2.63,19.17,19.17,0,0,1,.61,2.7,39,39,0,0,1,.78,6.82,36.65,36.65,0,0,1-.91,6.92,9.32,9.32,0,0,1-.3,1,11.16,11.16,0,0,0,4,2.28c3.78,5.74,9,10.31,16.1,9.63,12.54-1.19,14.43-17.85,16-27.63A156,156,0,0,0,1106.54,443Z"/><circle class="cls-9" cx="862.68" cy="529.61" r="5.24"/><circle class="cls-9" cx="1021.6" cy="535.12" r="5.24"/><path class="cls-9" d="M905.81,599.84A68.31,68.31,0,0,0,965.74,598c3.74-1.95.43-7.61-3.31-5.66a61.3,61.3,0,0,1-53.32,1.82c-3.82-1.69-7.16,3.95-3.3,5.65Z"/><path class="cls-11" d="M957.09,542.1c-1.59-7.25-4.11-24-15.39-19.84a11.54,11.54,0,0,0-6.14,6.2,3,3,0,0,0-1.16,1.27,71.19,71.19,0,0,0-6.46,17.17c-1,4.48-3.22,12.76-.78,17.14,3.7,6.62,19.33,7.47,25.38,4.92C962.22,564.89,958.83,550,957.09,542.1Zm-4.94,15.13c0-.06,0-.13.05-.2a2.44,2.44,0,0,1,0,.27A.43.43,0,0,1,952.15,557.23Z"/><path class="cls-8" d="M1020.2,773c7.69,0,7.71-11.95,0-11.95s-7.7,11.95,0,11.95Z"/><path class="cls-9" d="M727.71,1223.94q-5.1-42.81-10.29-85.62c-3.59-29.86-7.08-59.73-10.78-89.58-3.27-26.39-7-53.81-21.81-76.64-16.8-25.89-44.66-41.82-74.45-46-.86-.4-1.74-.79-2.65-1.12-23.42-8.66-48.56-5-70.29,5.91-15.35.86-30.45,10.64-40.1,22.72a158.55,158.55,0,0,0-28.91,57.65c-5.49,20.25-7.51,40.93-7.48,61.68-4.24,29.2-5.57,58.68.25,87.93C468.58,1198,486.9,1232.56,504,1266c1.81,3.55,3.67,7.07,5.55,10.56q9.32,25.34,21.15,49.77c5.1,10.5,14.54,13.84,23.63,12.36a169.11,169.11,0,0,0,20.5,17.17c12.06,8.54,27.05,1.06,34.66-9.08l3.95-5.26a480.1,480.1,0,0,0,49.29,1.85c14-.21,29.1-.19,41.83-6.87,12.31-6.47,20.94-18.09,24.83-31.33C736.89,1279.57,730.79,1249.76,727.71,1223.94Zm-75.79,21,.32.27a2.43,2.43,0,0,1-.37-.1Zm.41.28c-.1-.1-.19-.21-.28-.31a6.62,6.62,0,0,0,1.66.27A3.64,3.64,0,0,1,652.33,1245.22Z"/><path class="cls-12" d="M625.73,924.28c-1.12-22.55,0-47.92,0-47.92l-46.54,1.37-46.55-1.37s1.12,25.37,0,47.92c-1.37,27.38-2.89,30.92-2.89,30.92s15.09,20.73,46.7,20.73,52.33-23,52.33-23S627.1,951.66,625.73,924.28Z"/><path class="cls-12" d="M705.3,824.46c0,59-62.87,95.84-121.85,95.84S461.6,883.44,461.6,824.46s.34-123.21,121.85-123.21C705.64,701.25,705.3,765.49,705.3,824.46Z"/><circle class="cls-9" cx="553.01" cy="824.28" r="4.38"/><circle class="cls-9" cx="672.77" cy="824.28" r="4.38"/><path class="cls-13" d="M628.53,827.08c-3.08-5.75-9.28-5.5-13.3-2.4-3.71.4-7.57,2.84-8.1,6.65q-.87,6.17-1.73,12.33c-.52,3.75-1.31,7.3-.08,11,3.51,10.43,15,6.9,23.13,5.71,3.79-.55,6.92-5.22,6.76-8.88A56,56,0,0,0,628.53,827.08ZM623,850.18a2.29,2.29,0,0,1,0-.69l.15.26C623,850.27,623,850.42,623,850.18Z"/><path class="cls-9" d="M628.23,876.21c-2.88-2-8.43-.43-11.53-.14l-18.47,1.73a2.59,2.59,0,0,0-.74.07h0l-.09,0a1,1,0,0,0-.18.06c-2.22.46-2.52,3.52-.84,4.32,4.12,12.52,19.94,18.11,29.76,7.67C628.91,887,632.94,879.5,628.23,876.21Z"/><path class="cls-8" d="M716.7,752a11.53,11.53,0,0,0,.07-1.19C714.64,691.1,660.84,653.72,607,642.09c-32.13-7-80.28-7.73-111.25,11.63-18.42,9.15-35.72,25.75-45.24,37.5-46.2,57.07-39.58,141.41,15.22,190.62,9.72,8.73,24.28-2.18,18.08-14a89.32,89.32,0,0,1-4.12-75.42,61.62,61.62,0,0,1,11.39-14.22c13.83-12.93,31.66-19.68,50.07-23.33,25.05,18.78,53.4,32.9,85.05,35.85,31.87,3,64.22-7,87.53-29.13A10.63,10.63,0,0,0,716.7,752Z"/><path class="cls-12" d="M601.83,1165.09a151.64,151.64,0,0,1-39.46,7.25c-.16-.42-.3-.85-.48-1.26,1.48-4.4,5.87-9,7.94-11.33,7.66-8.55.25-22-11.2-19.25l-35.8,8.52c-1.11-.45-2.21-.93-3.26-1.46-9.64-4.84-18.9-11.07-24.08-20.82-6.47-12.16-6.43-26.91-6.4-40.34.07-31.25,6.31-61.59,17.37-90.77a16.35,16.35,0,0,0,.47-9.8c12.28-22.71-22.82-42.84-36.22-20.12a291.29,291.29,0,0,0-37.9,110.11C428,1112.69,427.16,1157,444,1191.1c8.11,16.41,22.94,29.36,41,33.44.14.19.27.37.42.55,11.3,13.26,40.11,8,54.88,5a120.93,120.93,0,0,0,24.75-7.93c25.73-5.86,48.06-18.71,51.36-46C617.3,1168.83,608.33,1163,601.83,1165.09Z"/><path class="cls-12" d="M759.45,1139.53c9-23,9.68-49.28,3.8-73.5-5.45-22.43-16.35-42.62-29.57-61.41-8.12-18-19.86-34-37-46.49a12.45,12.45,0,0,0-1.69-1c-.77-.82-1.51-1.65-2.3-2.46-5.92-6-13.49-3.56-17.17,1.75-9.22-.78-16.74,10-9.2,19.26,9.05,11.12,17.51,22.71,25.42,34.66,5,11.76,8,24.51,10,37.42,3.37,21.92,4.27,44.41,4,66.79a64.63,64.63,0,0,1-7.11,0c-10.24-.54-14.83,12.82-8.15,19.66a36.1,36.1,0,0,0,8.81,6.65c-8.65,4.34-18.78,6.4-28.38,9.35-21.32,6.55-16.46,29.3,1.56,36.33,23.24,9.08,63.43-1.52,76.84-25.3A58.76,58.76,0,0,0,759.45,1139.53Z"/><path class="cls-9" d="M756.41,1015.85c-27.65-36.43-56.15-85.92-109.25-81.86-13,1-18.94,12.73-13.92,24.26a470,470,0,0,0,40.88,74.6c-12.07,10.9,3.06,33.68,20.11,25.25a241.06,241.06,0,0,1,52.54-18.56C756,1037.38,762.66,1024.09,756.41,1015.85Z"/><path class="cls-9" d="M523.71,1044.31c1.17-20.76,1.87-41.54,2-62.33.05-10.4,2.65-25-6.73-32.25-7.8-6-17.64-3.8-26.21-.65-19.6,7.18-34.55,22-45.72,39.26-11.94,18.45-24,41.63-27.07,63.58-1.33,9.61,3.94,21.07,15.55,20.4a451.05,451.05,0,0,1,63.68.83,16.37,16.37,0,0,0,11.88,1.16c2.32.25,4.63.5,6.95.79,8.71,1.1,16-8.19,16.12-16.12C534.21,1051.58,529.71,1046.67,523.71,1044.31Z"/><circle class="cls-8" cx="597.73" cy="997.63" r="55.47"/><polygon class="cls-14" points="653.11 1328.27 647.91 1329.2 598.86 1018.9 604.06 1017.97 653.11 1328.27"/><path class="cls-14" d="M621,1138.62s-32.9,10.94-56.61-3.42-29.23-48.6-29.23-48.6,32.9-10.94,56.61,3.42S621,1138.62,621,1138.62Z"/><path class="cls-14" d="M617.88,1124s34.66-1.15,51.91-22.85,10.55-55.72,10.55-55.72-34.66,1.15-51.91,22.85S617.88,1124,617.88,1124Z"/><path class="cls-7" d="M2091,1189.39q-.51-72-4.9-143.92c-2.8-45.38-5.34-91.47-13.31-136.29-6.86-38.61-21.22-76.74-49.4-104.94-26.36-26.38-62.1-43-98.81-48.41-46.83-6.89-93.7,3.55-135.81,24.37a275.42,275.42,0,0,0-36.48,21.44c-32.75,111.62-40.65,228.67-58.55,343.72q4.59,115.35,15.21,230.36c.88,9.48,8.18,20.53,19.29,19.29,95.08-10.61,191.66-10.06,286.44,3.35,20.33,2.88,43.75,8.86,59.95-7.93,13.7-14.2,12.68-36,13.51-54.33Q2091.42,1262.81,2091,1189.39Z"/><path class="cls-6" d="M1940,769.88c-1.35-27,0-57.33,0-57.33l-55.69,1.63-55.7-1.63s1.35,30.35,0,57.33c-1.64,32.76-3.45,37-3.45,37s18,24.8,55.87,24.8,62.62-27.56,62.62-27.56S1941.67,802.64,1940,769.88Z"/><path class="cls-6" d="M2029.71,620.14c0,70.57-75.22,114.67-145.78,114.67s-145.79-44.1-145.79-114.67.41-147.42,145.79-147.42C2030.12,472.72,2029.71,549.58,2029.71,620.14Z"/><circle class="cls-9" cx="1891.6" cy="592.37" r="5.24"/><path class="cls-15" d="M1823.84,596.63a6,6,0,0,0-1.52-3.49c-.11-4.27-7.12-7.11-10.59-2.55-9.74,12.79-21.93,26.86-28.37,41.68-3.92,9-.16,17.12,9.52,19.15,11,2.29,15.65-2,19.2-11.57C1817.09,626.37,1824.89,611.34,1823.84,596.63Zm-19.49,33.78a6.67,6.67,0,0,0-1.47-.84c1-2,2.24-3.93,3.36-5.73C1805.71,625.61,1805.09,628,1804.35,630.41Z"/><path class="cls-9" d="M1857.73,664.91c-24.63,4.76-49.35,3-74.16.86a3.88,3.88,0,0,0-1.92.3c10.86,16.86,26.23,28,44.64,34.57,15.91-2.92,29.16-14.77,36.11-29.66A4.19,4.19,0,0,0,1857.73,664.91Z"/><path class="cls-8" d="M2010,439.11c-33.64-21.71-75.93-22.83-113.92-23.13-21.18-.17-42.67,1.36-63.27,7-9.08,2.51-30.4,12.39-43.44,7.23s-2.13-34.58-11-27.15c-2,1.63-19.09,18.58-29.34,32.24s-28.67,61.52-22.12,89.36c11.87,33.59,56.27,37,96.16,29.55,32.08-5.12,63.31-19.11,96.17-16.61,34.1,2.59,56,11.49,61.49,47.5,1.19,7.82,9.7,3.54,15.32-.07,7.75-5,20.75,8.92,18.89,18.29-2.35,11.88-7.86,24-15,22.26-6.09-1.43-6.41,11.07-4,16.52,4.34,9.61,5.28,32.74,2.86,43-2.72,11.55,10.26,1.25,18.12-7.41,12.61-13.92,18.17-34,24.3-51.95,7-20.53,12.64-41.76,13.62-63.77C2056.58,522.86,2041.25,459.27,2010,439.11Z"/><circle class="cls-9" cx="1762.09" cy="592.37" r="5.24"/><path class="cls-14" d="M1426.39,1188.61s-44.38,6.43-71.27-17.25-26.13-68.52-26.13-68.52,44.37-6.43,71.27,17.25S1426.39,1188.61,1426.39,1188.61Z"/><path class="cls-14" d="M1264.56,1064.66s-28.37,4.11-45.57-11-16.71-43.81-16.71-43.81,28.38-4.11,45.58,11S1264.56,1064.66,1264.56,1064.66Z"/><path class="cls-14" d="M1575.35,1201.27s-28.37,4.11-45.57-11-16.71-43.81-16.71-43.81,28.38-4.11,45.57,11S1575.35,1201.27,1575.35,1201.27Z"/><path class="cls-14" d="M1578,1037.33s28.38,4.12,45.57-11,16.71-43.81,16.71-43.81-28.37-4.11-45.57,11S1578,1037.33,1578,1037.33Z"/><path class="cls-14" d="M1431.45,1011s44.37,6.43,71.27-17.26,26.13-68.51,26.13-68.51-44.38-6.43-71.27,17.25S1431.45,1011,1431.45,1011Z"/></svg>