<svg id="Layer_1" data-name="Layer 1" xmlns="http://www.w3.org/2000/svg" viewBox="0 0 7595.29 3089.4"><defs><style>.cls-1{fill:#ffb83d;}</style></defs><title>LOGO-2</title><path class="cls-1" d="M741.45,912.88H491.83l-49.55,222.4H261.11l49.55-222.4H103.2V749.55H347.66L392.85,548H187.11V384.84H429.85l48.24-217.11H659.25L611,384.71H860.64l48.23-217h182.49l-48.23,217h175.61V548H1006.13l-45.2,201.51h174.3V912.88H923.93l-49.55,222.4H691.89ZM823.64,548H574L528.83,749.55H778.45Z" transform="translate(-90.63 -137.13)"/><path d="M2287.15,539.69h-237c-32.6-58.94-92.8-90.29-173.06-90.29-138,0-229.5,97.82-229.5,250.82,0,163,92.8,258.34,247.06,258.34,106.59,0,180.59-56.43,213.19-155.51H1835.67V645H2302.2v199.4c-45.15,151.74-191.88,303.49-423.89,303.49-263.36,0-449-184.35-449-447.71s184.36-449,447.72-449C2087.75,251.25,2240.75,359.1,2287.15,539.69Z" transform="translate(-90.63 -137.13)"/><path d="M2401.25,253.76c0-65.21,51.42-116.63,127.92-116.63,75.25,0,126.67,51.42,126.67,116.63,0,64-51.42,115.38-126.67,115.38C2452.67,369.14,2401.25,317.72,2401.25,253.76Zm20.07,188.11h214.45v699.79H2421.32Z" transform="translate(-90.63 -137.13)"/><path d="M2954.31,441.87,3106.05,941,3257.8,441.87H3486l-248.31,699.79H2973.12L2724.81,441.87Z" transform="translate(-90.63 -137.13)"/><path d="M3887.34,1151.69c-205.68,0-353.66-138-353.66-359.93s145.48-359.92,353.66-359.92c204.41,0,348.63,135.44,348.63,348.64a541.67,541.67,0,0,1-3.76,62.71H3746.88c7.52,91.54,64,134.18,132.93,134.18,60.2,0,94.06-30.09,111.62-67.72h228.24C4185.81,1046.35,4061.65,1151.69,3887.34,1151.69ZM3748.13,724h268.38c0-76.5-60.2-120.39-131.68-120.39C3814.6,603.65,3760.67,646.29,3748.13,724Z" transform="translate(-90.63 -137.13)"/><path d="M4348.83,261.28h214.45v880.38H4348.83Z" transform="translate(-90.63 -137.13)"/><path d="M4752.65,620h-85.28V441.87h85.28V271.31H4967.1V441.87h140.46V620H4967.1V900.87c0,41.39,17.55,59,65.21,59h76.5v181.84H4999.7c-145.47,0-247.05-61.45-247.05-243.29Z" transform="translate(-90.63 -137.13)"/><path d="M5224.17,261.28h214.45V788c0,104.1,51.42,164.29,153,164.29S5747.13,892.1,5747.13,788V261.28h214.45V786.75c0,243.29-170.56,363.69-373.72,363.69-204.42,0-363.69-120.4-363.69-363.69Z" transform="translate(-90.63 -137.13)"/><path d="M6542.2,431.84c171.81,0,308.51,138,308.51,358.67S6714,1151.69,6542.2,1151.69c-102.83,0-176.82-48.91-215.7-107.85v431.41H6112.05V441.87H6326.5V541C6365.38,479.5,6439.37,431.84,6542.2,431.84Zm-64,186.86c-80.26,0-153,61.45-153,173.06s72.74,173.07,153,173.07c81.52,0,154.26-62.7,154.26-174.32S6559.76,618.7,6478.24,618.7Z" transform="translate(-90.63 -137.13)"/><path d="M7368.62,978.63H6947.25V805.56l396.29-566.85h239.53V793h102.84V978.63H7583.07v163H7368.62ZM7383.67,793V474.48L7173,793Z" transform="translate(-90.63 -137.13)"/><path d="M779.31,2586.74H520.18v616h-418V1486.69H779.31c420.46,0,630.68,237.12,630.68,552.47C1410,2322.73,1216.88,2586.74,779.31,2586.74Zm-31.79-332.46c166.23,0,237.13-83.12,237.13-215.12S913.75,1824,747.52,1824H520.18v430.25Z" transform="translate(-90.63 -137.13)"/><path d="M531.72,3214.3H90.63V1475.14H779.31c103.51,0,197.61,14.34,279.68,42.61,78.64,27.09,146.34,67,201.23,118.5,105.54,99.09,161.32,238.41,161.32,402.9,0,152.16-54.94,290.08-154.7,388.36-54.63,53.82-122.07,95.67-200.42,124.38-84,30.78-180.6,46.39-287.11,46.39H531.72Zm-418-23.08H508.64v-616H779.31c103.79,0,197.72-15.13,279.17-45,75.24-27.57,139.89-67.66,192.16-119.16,95.32-93.9,147.81-226,147.81-371.91,0-158-53.26-291.45-154-386.07-52.5-49.29-117.42-87.48-193-113.5-79.64-27.44-171.21-41.35-272.16-41.35H113.71Zm633.81-925.4H508.64V1812.49H747.52c162.68,0,248.67,78.38,248.67,226.66S910.2,2265.82,747.52,2265.82Zm-215.8-23.09h215.8c149.69,0,225.58-68.49,225.58-203.58s-75.89-203.57-225.58-203.57H531.72Z" transform="translate(-90.63 -137.13)"/><path d="M2678.69,1821.59H2045.55v347.13h559.8V2491.4h-559.8v376.46h633.14v334.9H1627.53V1486.69H2678.69Z" transform="translate(-90.63 -137.13)"/><path d="M2690.23,3214.3H1616V1475.14H2690.23v358H2057.09v324h559.8v345.76h-559.8v353.37h633.14Zm-1051.15-23.08H2667.14V2879.4H2034V2479.86h559.81v-299.6H2034V1810.05h633.14V1498.23H1639.08Z" transform="translate(-90.63 -137.13)"/><path d="M4018.24,2899.64H3377.78l-102.67,303.12H2837.53l620.92-1716.07h484l620.91,1716.07H4120.92ZM3698,1948.71,3487.78,2577h422.9Z" transform="translate(-90.63 -137.13)"/><path d="M4579.83,3214.3H4112.64L4010,2911.18H3386.06L3283.38,3214.3h-462.3l629.27-1739.16h500.21l2.76,7.62Zm-450.63-23.08h417.73l-612.56-1693H3466.55L2854,3191.22h412.85L3369.5,2888.1h657ZM3926.78,2588.5h-455l226.2-676Zm-423-23.08h390.78L3698.08,1984.9Z" transform="translate(-90.63 -137.13)"/><path d="M5543.62,1467.14c408.24,0,716.25,229.78,814,601.35H5898.08c-70.89-146.67-200.45-220-359.35-220-256.67,0-432.68,190.68-432.68,493.8s176,493.8,432.68,493.8c158.9,0,288.46-73.34,359.35-220h459.57c-97.78,371.57-405.79,598.91-814,598.91-506,0-862.92-359.35-862.92-872.7S5037.6,1467.14,5543.62,1467.14Z" transform="translate(-90.63 -137.13)"/><path d="M5543.62,3226.53c-125.79,0-244.42-21.87-352.58-65-105.66-42.12-198.8-103.44-276.84-182.27s-138.85-173-180.58-279.85c-42.77-109.49-64.46-229.64-64.46-357.13s21.68-247.79,64.46-357.51c41.74-107.07,102.49-201.51,180.56-280.67S5085.4,1563.31,5191,1521c108.21-43.38,226.85-65.38,352.6-65.38,202.43,0,385.81,56.58,530.31,163.61,144.18,106.8,246.15,261.15,294.88,446.36l3.82,14.48H5890.84l-3.15-6.52c-33.79-69.91-81.64-123.79-142.22-160.14-59-35.4-128.57-53.36-206.74-53.36-123.6,0-228.71,44.73-304,129.36-76.65,86.2-117.17,208.23-117.17,352.9s40.52,266.71,117.17,352.9c75.26,84.63,180.37,129.36,304,129.36,78.17,0,147.73-17.95,206.74-53.36,60.58-36.35,108.43-90.23,142.22-160.13l3.15-6.52h481.79l-3.82,14.48c-48.68,185-150.66,338.93-294.91,445.15S5746.29,3226.53,5543.62,3226.53Zm0-1747.85c-122.8,0-238.54,21.44-344,63.72-102.65,41.15-193.15,101-269,177.91s-134.9,168.71-175.49,272.85c-41.73,107-62.89,224.49-62.89,349.12s21.16,241.93,62.88,348.73c40.58,103.87,99.62,195.39,175.48,272s166.3,136.13,269,177.07c105.44,42,221.19,63.35,344,63.35,197.7,0,376.34-54.59,516.59-157.87,136.19-100.28,233.59-244.57,282.34-418H5905.26c-71.34,142-201.21,220-366.53,220-130.38,0-241.46-47.41-321.22-137.1-80.47-90.49-123-217.82-123-368.24s42.53-277.75,123-368.24c79.76-89.69,190.84-137.1,321.22-137.1,165.32,0,295.19,78,366.53,220h437.29c-48.81-173.64-146.22-318.35-282.36-419.2C5919.7,1533.69,5741.07,1478.68,5543.62,1478.68Z" transform="translate(-90.63 -137.13)"/><path d="M7665.45,1821.59H7032.31v347.13h559.8V2491.4h-559.8v376.46h633.14v334.9H6614.3V1486.69H7665.45Z" transform="translate(-90.63 -137.13)"/><path d="M7677,3214.3H6602.75V1475.14H7677v358H7043.85v324h559.8v345.76h-559.8v353.37H7677Zm-1051.15-23.08H7653.91V2879.4H7020.77V2479.86h559.8v-299.6h-559.8V1810.05h633.14V1498.23H6625.84Z" transform="translate(-90.63 -137.13)"/></svg>