<?xml version="1.0" encoding="utf-8"?>
<!-- Generator: Adobe Illustrator 22.0.0, SVG Export Plug-In . SVG Version: 6.00 Build 0)  -->
<svg version="1.1" id="Layer_1" xmlns="http://www.w3.org/2000/svg" xmlns:xlink="http://www.w3.org/1999/xlink" x="0px" y="0px"
	 viewBox="0 0 4889.4 2923.3" style="enable-background:new 0 0 4889.4 2923.3;" xml:space="preserve">
<style type="text/css">
	.st0{fill:#FFB83D;}
</style>
<g>
	<g>
		<path d="M1772.1,279.7h-254.2c-18.4-29.3-53.3-47.9-103.3-47.9c-93.4,0-145.5,66.3-145.5,168.3c0,119.6,54.3,179.2,172.7,179.2
			c54.3,0,98.9-19.6,134.6-67.3h-192.1V341.4h392.2v241.1c-53.3,92.4-161.8,208.6-360.6,208.6c-242.3,0-391-161.8-391-391
			s147.8-391,388.9-391C1617.8,9.4,1749.3,115.8,1772.1,279.7z"/>
		<path d="M1863.3,16.9h241.1v768.9h-241.1V16.9z"/>
		<path d="M2731.1,16.9h256.3L2729,785.9h-311.7L2158.7,16.9H2415l158.7,528.9L2731.1,16.9z"/>
		<path d="M3554.4,209.3h-271.6v94.5h239v181.5h-239v108.7h271.6v192.3h-512.6V16.9h512.6V209.3z"/>
		<path d="M3830.2,16.9h241.1v768.9h-241.1L3830.2,16.9L3830.2,16.9z"/>
		<path d="M4136.5,16.9h647.3V208h-204.2v577.9h-241.1V208.2h-202V16.9z"/>
		<path d="M1042.3,1081.8h240v433.4c0,66.3,26.1,115.2,98.9,115.2s102-48.9,102-115.2v-433.4h240v433.4
			c0,227-155.3,343.3-347.7,343.3s-333.5-116.2-333.5-343.3v-433.4H1042.3z"/>
		<path d="M2164.1,1606.4h-95.5v244.4h-241.1v-768.9h336.8c193.4,0,292.3,108.7,292.3,264C2456.4,1488,2357.5,1606.4,2164.1,1606.4z
			 M2136.9,1416.3c54.3,0,74.9-28.2,74.9-70.7s-20.7-70.7-74.9-70.7h-68.4v141.1h68.4V1416.3z"/>
		<path d="M3059.1,1731.4h-339.9v-201.1l323.6-461.6h259.6v454.1h78.2v208.6h-78.2v119.6h-243.3V1731.4L3059.1,1731.4z
			 M3078.8,1522.7v-179.2l-117.3,179.2H3078.8z"/>
		<path d="M1383.2,2671.3h-95.5v244.4h-241.2v-768.9h336.8c193.4,0,292.3,108.7,292.3,263.9
			C1675.5,2552.9,1576.6,2671.3,1383.2,2671.3z M1356.1,2481.2c54.3,0,74.9-28.2,74.9-70.7c0-42.4-20.7-70.7-74.9-70.7h-68.4V2481
			h68.4V2481.2z"/>
		<path d="M2264,2338.9h-271.6v94.5h239v181.5h-239v108.7H2264v192.3h-512.6v-768.9H2264V2338.9z"/>
		<path d="M2848.4,2799.4h-256.3l-38,116.2h-253.2l281.4-768.9h278.1l280.2,768.9h-254.2L2848.4,2799.4z M2720.2,2404.1l-69.6,213.9
			h139L2720.2,2404.1z"/>
		<path d="M3553.3,2139c203.2,0,341,121.7,372.6,303.1h-254.2c-22.8-51-68.4-80.3-122.7-80.3c-81.5,0-131.5,66.3-131.5,168.3
			c0,102,50,168.3,131.5,168.3c54.3,0,99.9-29.3,122.7-80.3h254.2c-31.6,181.5-169.5,303.1-372.6,303.1
			c-235.6,0-380.1-161.8-380.1-391C3173.3,2301.2,3317.5,2139,3553.3,2139z"/>
		<path d="M4525.3,2338.9h-271.6v94.5h239v181.5h-239v108.7h271.6v192.3h-512.6v-768.9h512.6L4525.3,2338.9L4525.3,2338.9z"/>
		<path d="M4736,2924.2c-85.7,0-139-52.1-139-118.3c0-67.3,53.3-120.6,139-120.6c84.7,0,138,53.3,138,120.6
			C4874,2872.2,4820.7,2924.2,4736,2924.2z"/>
	</g>
	<g>
		<path class="st0" d="M500.6,573.1H311.7l-37.5,168.3H137.1l37.5-168.3h-157V449.5h185L236.8,297H81.1V173.5h183.7L301.3,9.2h137.1
			l-36.5,164.2h188.9L627.3,9.2h138.1l-36.5,164.2h132.9V297H700.9l-34.2,152.5h131.9v123.6H638.7l-37.5,168.3H463.1L500.6,573.1z
			 M562.8,297H373.9l-34.2,152.5h188.9L562.8,297z"/>
	</g>
</g>
</svg>
